<svg xmlns="http://www.w3.org/2000/svg" aria-hidden="true" style="position:absolute;width:0;height:0;overflow:hidden">
  <defs>
    <symbol id="icon-arrow-down" viewBox="0 0 32 32">
      <path fill="none" stroke="#4640de" stroke-linecap="round" stroke-linejoin="round" stroke-width="4" d="M30 9 16 23 2 9" style="stroke:var(--color1, #4640de)"/>
    </symbol>
    <symbol id="icon-autopark" viewBox="0 0 32 32">
      <path fill="none" stroke="#26a4ff" stroke-linecap="round" stroke-linejoin="round" stroke-width="2.667" d="M28 17.333C28 12.173 23.507 8 14.667 8H4m0 12h21.333A2.67 2.67 0 0 0 28 17.333" style="stroke:var(--color2, #26a4ff)"/>
      <path fill="none" stroke="#26a4ff" stroke-linecap="round" stroke-linejoin="round" stroke-width="2.667" d="M4 8v6.667h23.333M4 13.333v5.333m6.667-3.999V8m6.666 6.667v-6M4 25.333h24" style="stroke:var(--color2, #26a4ff)"/>
    </symbol>
    <symbol id="icon-city" viewBox="0 0 32 32">
      <path fill="none" stroke="#26a4ff" stroke-linecap="round" stroke-linejoin="round" stroke-width="2.667" d="M4 28h24M6.667 28V9.333L17.334 4v24" style="stroke:var(--color2, #26a4ff)"/>
      <path fill="none" stroke="#26a4ff" stroke-linecap="round" stroke-linejoin="round" stroke-width="2.667" d="M25.333 28V14.667l-8-5.333M12 12v.013M12 16v.013M12 20v.013M12 24v.013" style="stroke:var(--color2, #26a4ff)"/>
    </symbol>
    <symbol id="icon-condition" viewBox="0 0 32 32">
      <path fill="#4640de" d="M14.133 29.333c-1.133 0-1.994-.339-2.583-1.017s-.883-1.45-.883-2.317c0-.578.128-1.139.383-1.683s.65-.994 1.183-1.35c.489-.311.883-.711 1.183-1.2s.506-1.011.617-1.567l-.4-.2a2.08 2.08 0 0 1-.367-.233l-3.067 1.1c-.378.133-.744.244-1.1.333s-.722.133-1.1.133c-1.4 0-2.639-.611-3.717-1.833s-1.617-3.011-1.617-5.367c0-1.133.339-1.994 1.017-2.583s1.439-.883 2.283-.883c.578 0 1.144.128 1.7.383s1.011.65 1.367 1.183c.311.489.711.883 1.2 1.183s1.011.506 1.567.617l.2-.4a2.08 2.08 0 0 1 .233-.367l-1.1-3.067c-.133-.378-.244-.744-.333-1.1s-.133-.711-.133-1.067c0-1.422.611-2.672 1.833-3.75s3.011-1.617 5.367-1.617c1.133 0 1.994.339 2.583 1.017s.883 1.439.883 2.283c0 .578-.128 1.144-.383 1.7s-.65 1.011-1.183 1.367c-.489.311-.883.711-1.183 1.2s-.506 1.011-.617 1.567l.4.2c.133.067.256.144.367.233l3.067-1.133c.378-.133.739-.239 1.083-.317s.706-.117 1.083-.117c1.8 0 3.144.744 4.033 2.233s1.333 3.144 1.333 4.967c0 1.133-.356 1.994-1.067 2.583s-1.5.883-2.367.883c-.556 0-1.094-.128-1.617-.383s-.961-.65-1.317-1.183c-.311-.489-.711-.883-1.2-1.183s-1.011-.506-1.567-.617l-.2.4a2.08 2.08 0 0 1-.233.367l1.1 3.067c.133.356.244.694.333 1.017s.133.661.133 1.017c.022 1.444-.578 2.722-1.8 3.833s-3.022 1.667-5.4 1.667zM16 18c.556 0 1.028-.194 1.417-.583S18 16.556 18 16s-.194-1.028-.583-1.417S16.556 14 16 14s-1.028.194-1.417.583S14 15.444 14 16s.194 1.028.583 1.417S15.444 18 16 18zm-1.533-6.4c.133-.044.272-.083.417-.117s.283-.061.417-.083c.178-.933.517-1.8 1.017-2.6s1.161-1.467 1.983-2c.111-.089.2-.2.267-.333s.1-.3.1-.5c0-.178-.067-.328-.2-.45s-.333-.183-.6-.183c-.844 0-1.8.183-2.867.55s-1.622 1.083-1.667 2.15c0 .2.028.389.083.567s.106.344.15.5l.9 2.5zM8 18.667c.311 0 .678-.078 1.1-.233l2.5-.9c-.044-.133-.083-.272-.117-.417s-.061-.283-.083-.417c-.933-.178-1.8-.517-2.6-1.017s-1.467-1.161-2-1.983c-.089-.111-.206-.2-.35-.267s-.306-.1-.483-.1c-.2 0-.356.067-.467.2s-.167.333-.167.6c0 1.2.228 2.256.683 3.167s1.117 1.367 1.983 1.367zm6.133 8c1.044 0 2.072-.211 3.083-.633s1.494-1.156 1.45-2.2c0-.178-.028-.344-.083-.5s-.106-.3-.15-.433l-.9-2.5c-.133.044-.272.083-.417.117s-.283.061-.417.083c-.178.933-.517 1.8-1.017 2.6s-1.161 1.467-1.983 2c-.111.089-.206.206-.283.35s-.106.294-.083.45c.022.178.089.333.2.467s.311.2.6.2zm11.767-8c.2 0 .378-.056.533-.167s.233-.322.233-.633c0-.844-.178-1.806-.533-2.883s-1.078-1.628-2.167-1.65c-.2 0-.389.022-.567.067s-.344.089-.5.133l-2.5.933c.044.133.083.272.117.417s.061.283.083.417c.933.178 1.8.517 2.6 1.017s1.467 1.161 2 1.983c.067.111.167.2.3.267s.267.1.4.1z" style="fill:var(--color1, #4640de)"/>
    </symbol>
    <symbol id="icon-de-germany" viewBox="0 0 32 32">
      <path fill="#ffd018" d="M0 19.969h31.752v7.938H0v-7.938z" style="fill:var(--color3, #ffd018)"/>
      <path fill="#e31d1c" d="M0 12.031h31.752v7.938H0v-7.938z" style="fill:var(--color4, #e31d1c)"/>
      <path fill="#272727" d="M0 4.093h31.752v7.938H0V4.093z" style="fill:var(--color5, #272727)"/>
    </symbol>
    <symbol id="icon-facebook" viewBox="0 0 32 32">
      <path fill="#4640de" d="M20.16 7.093h2.507v-4.24a35.101 35.101 0 0 0-3.653-.187c-3.627 0-6.107 2.213-6.107 6.267v3.493H8.814v4.747h4.093v12.16h4.907v-12.16h4.08l.613-4.747h-4.693V9.399c0-1.4.373-2.307 2.347-2.307z" style="fill:var(--color1, #4640de)"/>
    </symbol>
    <symbol id="icon-fire" viewBox="0 0 32 32">
      <path fill="#26a4ff" d="m11.29 11.193-.003.002-.003.003.006-.005zm13.273-.249a1.656 1.656 0 0 0-.307-.233 1.331 1.331 0 0 0-1.865.549 7.714 7.714 0 0 1-1.864 2.37 11.615 11.615 0 0 0-1.392-7.859 11.616 11.616 0 0 0-4.297-4.263 1.335 1.335 0 0 0-1.988 1.075 9.353 9.353 0 0 1-3.294 6.59l-.307.25a11.37 11.37 0 0 0-2.65 2.483 11.979 11.979 0 0 0 4.874 18.545 1.332 1.332 0 0 0 1.837-1.235 1.409 1.409 0 0 0-.066-.417 9.306 9.306 0 0 1-.253-3.441 12.002 12.002 0 0 0 5.75 5.355c.301.135.641.153.954.051a11.99 11.99 0 0 0 7.882-14.585 11.995 11.995 0 0 0-3.01-5.232zm-5.207 17.108a9.294 9.294 0 0 1-4.769-5.869 12.21 12.21 0 0 1-.24-1.285 1.335 1.335 0 0 0-1.987-.972 1.338 1.338 0 0 0-.488.489 11.939 11.939 0 0 0-1.607 6.29 9.318 9.318 0 0 1-1.566-13.158 8.731 8.731 0 0 1 2.083-1.944 1.01 1.01 0 0 0 .099-.073s.396-.327.409-.335a11.953 11.953 0 0 0 3.865-6.177 8.985 8.985 0 0 1 1.849 10.784 1.336 1.336 0 0 0 .804 1.897c.253.075.522.073.773-.006a10.478 10.478 0 0 0 5.15-3.583 9.342 9.342 0 0 1 1.177 8.027 9.323 9.323 0 0 1-5.549 5.917z" style="fill:var(--color2, #26a4ff)"/>
    </symbol>
    <symbol id="icon-fr-france" viewBox="0 0 32 32">
      <path fill="#f50100" d="M21.83 4.093h9.922v23.814H21.83V4.093z" style="fill:var(--color6, #f50100)"/>
      <path fill="#2e42a5" d="M0 4.093h11.907v23.814H0V4.093z" style="fill:var(--color7, #2e42a5)"/>
      <path fill="#f7fcff" d="M9.923 4.093H21.83v23.814H9.923V4.093z" style="fill:var(--color8, #f7fcff)"/>
    </symbol>
    <symbol id="icon-instagram" viewBox="0 0 32 32">
      <path fill="none" stroke="#515b6f" stroke-linecap="round" stroke-linejoin="round" stroke-width="2.56" d="M20.992 5.76h-10.24a5.12 5.12 0 0 0-5.12 5.12v10.24a5.12 5.12 0 0 0 5.12 5.12h10.24a5.12 5.12 0 0 0 5.12-5.12V10.88a5.12 5.12 0 0 0-5.12-5.12z" opacity=".5" style="stroke:var(--color9, #515b6f)"/>
      <path fill="none" stroke="#515b6f" stroke-linecap="round" stroke-linejoin="round" stroke-width="2.56" d="M15.872 19.84a3.84 3.84 0 1 0 0-7.68 3.84 3.84 0 0 0 0 7.68zm5.76-9.6v.001" opacity=".5" style="stroke:var(--color9, #515b6f)"/>
    </symbol>
    <symbol id="icon-it-italy" viewBox="0 0 32 32">
      <path fill="#c51918" d="M21.83 4.093h9.922v23.814H21.83V4.093z" style="fill:var(--color10, #c51918)"/>
      <path fill="#5eaa22" d="M0 4.093h11.907v23.814H0V4.093z" style="fill:var(--color11, #5eaa22)"/>
      <path fill="#fff" d="M9.923 4.093H21.83v23.814H9.923V4.093z" style="fill:var(--color12, #fff)"/>
    </symbol>
    <symbol id="icon-linkedin" viewBox="0 0 32 32">
      <path fill="none" stroke="#515b6f" stroke-linecap="round" stroke-linejoin="round" stroke-width="2.56" d="M23.552 5.76H8.192a2.56 2.56 0 0 0-2.56 2.56v15.36a2.56 2.56 0 0 0 2.56 2.56h15.36a2.56 2.56 0 0 0 2.56-2.56V8.32a2.56 2.56 0 0 0-2.56-2.56zm-12.8 8.96v6.4m0-10.24v.013m5.12 10.227v-6.4" opacity=".5" style="stroke:var(--color9, #515b6f)"/>
      <path fill="none" stroke="#515b6f" stroke-linecap="round" stroke-linejoin="round" stroke-width="2.56" d="M20.992 21.12v-3.84a2.56 2.56 0 0 0-5.12 0" opacity=".5" style="stroke:var(--color9, #515b6f)"/>
    </symbol>
    <symbol id="icon-location" viewBox="0 0 32 32">
      <path fill="none" stroke="#26a4ff" stroke-linecap="round" stroke-linejoin="round" stroke-width="2.667" d="M19.333 14.001a3.333 3.333 0 1 0-6.666-.002 3.333 3.333 0 0 0 6.666.002z" style="stroke:var(--color2, #26a4ff)"/>
      <path fill="none" stroke="#26a4ff" stroke-linecap="round" stroke-linejoin="round" stroke-width="2.667" d="M15.999 28C14.401 28 6 21.198 6 14.084 6 8.515 10.476 4 15.999 4S26 8.516 26 14.084C26 21.197 17.597 28 15.999 28z" style="stroke:var(--color2, #26a4ff)"/>
    </symbol>
    <symbol id="icon-nl-netherlands" viewBox="0 0 32 32">
      <path fill="#f7fcff" d="M0 4.093v23.814h31.752V4.093H0z" style="fill:var(--color8, #f7fcff)"/>
      <path fill="#e31d1c" d="M0 4.093v7.938h31.752V4.093H0z" style="fill:var(--color4, #e31d1c)"/>
      <path fill="#3d58db" d="M0 19.969v7.938h31.752v-7.938H0z" style="fill:var(--color13, #3d58db)"/>
    </symbol>
    <symbol id="icon-passengers" viewBox="0 0 32 32">
      <path fill="#26a4ff" d="M16 6.667a2.67 2.67 0 0 0-2.667 2.667A2.668 2.668 0 1 0 16 6.667zm-3.771-1.105a5.334 5.334 0 1 1 7.543 7.544 5.334 5.334 0 0 1-7.543-7.544zM6.667 12a1.335 1.335 0 0 0-.943 2.277 1.335 1.335 0 0 0 1.886 0A1.334 1.334 0 0 0 6.667 12zm-2.829-1.495a4.001 4.001 0 0 1 5.656 0 4.001 4.001 0 0 1 0 5.656 3.995 3.995 0 0 1-5.656 0 3.995 3.995 0 0 1 0-5.656zM25.333 12a1.335 1.335 0 0 0-.943 2.277A1.334 1.334 0 1 0 25.333 12zm-2.828-1.495a4 4 0 1 1 5.657 5.655 4 4 0 0 1-5.657-5.655zM16 18.666a5.334 5.334 0 0 1 4.883 3.184l.321 3.483H10.795l.321-3.483a5.334 5.334 0 0 1 4.883-3.184zm8 6.667V24c0-.732-.098-1.443-.284-2.12a2.663 2.663 0 0 1 2.491-.399A2.669 2.669 0 0 1 28 24v1.333h-4zm-1.427-5.896A8.01 8.01 0 0 0 16 15.999a7.998 7.998 0 0 0-6.573 3.438 5.336 5.336 0 0 0-7.105 1.471A5.33 5.33 0 0 0 1.334 24v2.667c0 .736.597 1.333 1.333 1.333h26.667c.736 0 1.333-.597 1.333-1.333V24a5.33 5.33 0 0 0-6.831-5.118c-.445.13-.869.318-1.262.555zM8.284 21.88A8.033 8.033 0 0 0 8 24v1.333H4V24a2.668 2.668 0 0 1 4.284-2.12z" style="fill:var(--color2, #26a4ff)"/>
    </symbol>
    <symbol id="icon-pets" viewBox="0 0 32 32">
      <path fill="#4640de" stroke="#4640de" stroke-width=".667" d="M28.625 4.799a2.33 2.33 0 0 0-1.697-.664c-1.259.032-2.282 1.099-2.282 2.378v5.933a2.346 2.346 0 0 0-2.438.552l-5.847 5.847a3.94 3.94 0 0 0-.361.416 3.94 3.94 0 0 0-.361-.416l-5.847-5.847a2.348 2.348 0 0 0-2.439-.552V6.478c0-.638-.251-1.234-.708-1.679s-1.06-.681-1.697-.664c-1.258.032-2.282 1.099-2.282 2.378v8.762c0 .799.226 1.579.654 2.254l4.306 6.799c.395.624.604 1.345.604 2.084v2.141c0 .431.35.781.781.781h13.976c.431 0 .781-.35.781-.781v-2.141c0-.739.209-1.459.604-2.084l4.306-6.799a4.201 4.201 0 0 0 .654-2.254V6.478c0-.637-.251-1.234-.708-1.679zM8.947 23.491l-4.306-6.799a2.647 2.647 0 0 1-.411-1.418V6.513c0-.439.341-.805.76-.816a.778.778 0 0 1 .802.781v8.203c0 .022.002.043.003.064.022.57.249 1.133.683 1.567l2.85 2.85a.782.782 0 0 0 1.105-1.105l-2.85-2.85a.782.782 0 0 1 1.105-1.105l5.846 5.846a2.33 2.33 0 0 1 .684 1.659v6.163H9.793v-1.36a5.452 5.452 0 0 0-.847-2.92zm18.824-8.217c0 .503-.142.993-.411 1.418l-4.306 6.799a5.45 5.45 0 0 0-.847 2.92v1.36h-5.425v-6.163c0-.628.243-1.218.684-1.659l5.847-5.847a.782.782 0 0 1 1.105 1.105l-2.849 2.851a.782.782 0 0 0 1.105 1.105l2.849-2.851c.431-.431.673-1 .685-1.607l.001-.024V6.513c0-.439.341-.805.76-.816.212-.006.414.073.566.221s.236.347.236.56v8.797z" style="fill:var(--color1, #4640de);stroke:var(--color1, #4640de)"/>
      <path fill="#4640de" stroke="#4640de" stroke-width=".667" d="M10.556 9.554c.033.036.148.15 2.337 2.284a972.021 972.021 0 0 1 2.539 2.479.78.78 0 0 0 1.132-.006c.111-.115 1.307-1.278 2.362-2.306 1.848-1.799 2.435-2.371 2.508-2.451a.657.657 0 0 0 .048-.057c2.525-3.206.225-6.805-3.034-6.82-.885.014-1.724.317-2.461.885-1.898-1.437-3.987-.97-5.223.173-1.668 1.523-1.75 4.068-.231 5.793l.023.026zm1.269-4.672c.796-.736 2.222-1.105 3.622.276a.779.779 0 0 0 1.11-.013c.867-.897 2.366-1.363 3.609-.267.812.716 1.323 2.094.107 3.631a599.16 599.16 0 0 1-2.436 2.377c-.885.861-1.469 1.431-1.842 1.795-.532-.521-3.885-3.787-4.286-4.183-.795-.962-1.095-2.495.117-3.615z" style="fill:var(--color1, #4640de);stroke:var(--color1, #4640de)"/>
    </symbol>
    <symbol id="icon-phone" viewBox="0 0 32 32">
      <path fill="#4640de" stroke="#4640de" stroke-width=".667" d="M7.453 1.333c.568 0 1.15.13 1.648.365H9.1a3.38 3.38 0 0 1 1.411 1.189l3.092 4.361c.292.403.521.8.68 1.204h-.001c.185.43.29.872.29 1.309 0 .573-.166 1.126-.474 1.638l-.001-.001c-.219.391-.543.796-.939 1.193l.001.001-.74.771c.168.272.466.698.98 1.302a49.973 49.973 0 0 0 1.858 2.031h.001a40.278 40.278 0 0 0 1.57 1.48l.461.395.003.001.512.415c.339.263.599.434.79.547l.743-.732c.421-.421.841-.747 1.258-.966l.159-.091c.75-.402 1.654-.47 2.552-.154l.193.074.001.001.281.128c.191.093.388.201.591.328l.31.204.001.001 4.421 3.142c.474.321.844.725 1.09 1.205l.098.21.003.007.139.4c.119.395.177.777.177 1.163a4.79 4.79 0 0 1-.458 2.021 6.555 6.555 0 0 1-1.122 1.682l.001.001c-.789.872-1.657 1.502-2.669 1.91l.001.001a8.219 8.219 0 0 1-3.099.598c-1.56 0-3.191-.373-4.863-1.079h-.001c-1.626-.691-3.26-1.639-4.85-2.784l-.003-.001a41.95 41.95 0 0 1-4.53-3.858l-.003-.003a40.212 40.212 0 0 1-3.859-4.518l-.001-.003C4.141 17.007 3.3 15.589 2.66 14.202l-.262-.593c-.708-1.687-1.066-3.331-1.066-4.889 0-1.08.194-2.108.569-3.068l.001-.001.158-.37a7.53 7.53 0 0 1 1.711-2.339C4.85 1.88 6.103 1.333 7.452 1.333zm0 2.667c-.624 0-1.225.268-1.833.865l-.005.005c-.58.542-.977 1.129-1.224 1.759l-.001.003a5.494 5.494 0 0 0-.389 2.089c0 1.188.282 2.491.854 3.844h-.001c.589 1.387 1.416 2.831 2.47 4.28l.402.543a36.673 36.673 0 0 0 3.176 3.656l.5.487a37.114 37.114 0 0 0 3.715 3.108h.001l.534.38a21.455 21.455 0 0 0 3.243 1.865l.543.237.417.171c2.071.805 3.955.938 5.497.296l.001-.001.233-.103a4.643 4.643 0 0 0 1.471-1.13l.004-.004.201-.236c.19-.241.35-.502.49-.799l.001-.004.091-.219c.078-.22.116-.442.116-.663 0-.165-.029-.33-.115-.525a.502.502 0 0 0-.061-.095.987.987 0 0 0-.199-.172l-.004-.004-4.426-3.145a3.8 3.8 0 0 0-.516-.31l-.152-.069a6.465 6.465 0 0 1-.193-.082.266.266 0 0 0-.081-.023c-.019-.002-.089-.004-.292.121l-.013.008-.013.007c-.219.11-.429.281-.686.538l-.003.001-1.014 1.001c-.62.604-1.558.741-2.281.474l-.01-.004-.009-.004-.372-.165-.01-.005a10.18 10.18 0 0 1-1.424-.956l-.527-.431a42.177 42.177 0 0 1-2.191-2.03l-.004-.004a46.389 46.389 0 0 1-2.001-2.176l-.001-.001c-.634-.741-1.104-1.389-1.4-1.939l-.009-.016-.007-.018-.168-.419-.005-.021c-.083-.319-.117-.523-.117-.75 0-.564.204-1.074.599-1.471l1-1.04.005-.004.176-.185c.162-.181.286-.348.372-.495l.004-.007.049-.09a.433.433 0 0 0 .047-.189.945.945 0 0 0-.081-.298v-.001a3.499 3.499 0 0 0-.387-.635l-.004-.005L8.342 4.42a.89.89 0 0 0-.362-.302v-.001a1.343 1.343 0 0 0-.526-.115z" style="fill:var(--color1, #4640de);stroke:var(--color1, #4640de)"/>
    </symbol>
    <symbol id="icon-plus" viewBox="0 0 32 32">
      <path fill="#4640de" d="M16 5.841c.701 0 1.27.569 1.27 1.27v17.778a1.27 1.27 0 0 1-2.54 0V7.111c0-.701.569-1.27 1.27-1.27z" style="fill:var(--color1, #4640de)"/>
      <path fill="#4640de" d="M5.842 16c0-.701.569-1.27 1.27-1.27H24.89a1.27 1.27 0 0 1 0 2.54H7.112A1.27 1.27 0 0 1 5.842 16z" style="fill:var(--color1, #4640de)"/>
    </symbol>
    <symbol id="icon-sms" viewBox="0 0 32 32">
      <path fill="#26a4ff" d="M22.667 28.333H9.334c-4.867 0-7.667-2.8-7.667-7.667v-9.333c0-4.867 2.8-7.667 7.667-7.667h13.333c4.867 0 7.667 2.8 7.667 7.667v9.333c0 4.867-2.8 7.667-7.667 7.667zM9.333 5.667c-3.813 0-5.667 1.853-5.667 5.667v9.333c0 3.813 1.853 5.667 5.667 5.667h13.333c3.813 0 5.667-1.853 5.667-5.667v-9.333c0-3.813-1.853-5.667-5.667-5.667H9.333z" style="fill:var(--color2, #26a4ff)"/>
      <path fill="#26a4ff" d="M16 17.16c-1.12 0-2.253-.347-3.12-1.053l-4.173-3.333a.997.997 0 0 1 1.24-1.56l4.173 3.333c1.013.813 2.733.813 3.747 0l4.173-3.333a.984.984 0 0 1 1.4.16.984.984 0 0 1-.16 1.4l-4.173 3.333c-.853.707-1.987 1.053-3.107 1.053z" style="fill:var(--color2, #26a4ff)"/>
    </symbol>
    <symbol id="icon-sp-spain" viewBox="0 0 32 32">
      <path fill="#ffb400" d="M0 4.093v23.814h31.752V4.093H0z" style="fill:var(--color14, #ffb400)"/>
      <path fill="#c51918" d="M0 4.093v5.954h31.752V4.093H0zm0 17.86v5.953h31.752v-5.953H0z" style="fill:var(--color10, #c51918)"/>
      <path fill="#f1f9ff" d="M4.969 14.286H6.08v5.779H4.969v-5.779z" style="fill:var(--color15, #f1f9ff)"/>
      <path fill="#c88a02" d="M6.525 13.285h-2v.556h.333v.444h1.334v-.444h.333v-.556zm-.334 7.113h.333v.556h-2v-.556h.333v-.445h1.334v.445z" style="fill:var(--color16, #c88a02)"/>
      <path fill="#ad1619" d="M5.525 13.396c.242 0 .266-.091.409-.227.111-.106.369-.237.369-.384 0-.338-.348-.611-.778-.611s-.778.274-.778.611c0 .164.178.274.312.384.142.116.245.227.466.227z" style="fill:var(--color17, #ad1619)"/>
      <path fill="#005bbf" d="M4.524 20.953h2v.889s-.25-.111-.5-.111-.5.111-.5.111-.25-.111-.5-.111-.5.111-.5.111v-.889z" style="fill:var(--color18, #005bbf)"/>
      <path fill="#fff" d="m4.507 21.668-.044-.107c.18-.08.361-.12.542-.12a.58.58 0 0 1 .282.063c.091.041.138.053.238.053s.147-.013.238-.053a.592.592 0 0 1 .282-.063c.181 0 .362.04.542.12l-.044.107a1.221 1.221 0 0 0-.498-.111c-.1 0-.147.013-.238.053-.104.046-.165.063-.282.063s-.178-.016-.282-.063a.482.482 0 0 0-.238-.053c-.166 0-.332.037-.498.111zm0-.334-.044-.107c.18-.08.361-.12.542-.12a.58.58 0 0 1 .282.063c.091.041.138.053.238.053s.147-.013.238-.053a.592.592 0 0 1 .282-.063c.181 0 .362.04.542.12l-.044.107a1.221 1.221 0 0 0-.498-.111c-.1 0-.147.013-.238.053-.104.046-.165.063-.282.063s-.178-.016-.282-.063a.482.482 0 0 0-.238-.053c-.166 0-.332.037-.498.111z" style="fill:var(--color12, #fff)"/>
      <path fill="#f1f9ff" d="M15.86 14.286h1.111v5.779H15.86v-5.779z" style="fill:var(--color15, #f1f9ff)"/>
      <path fill="#c88a02" d="M17.416 13.285h-2v.556h.333v.444h1.334v-.444h.333v-.556zm-.334 7.113h.333v.556h-2v-.556h.333v-.445h1.334v.445z" style="fill:var(--color16, #c88a02)"/>
      <path fill="#ad1619" d="M16.416 13.397c.242 0 .266-.091.409-.227.111-.106.369-.237.369-.384 0-.338-.348-.611-.778-.611s-.778.274-.778.611c0 .164.178.274.312.384.142.116.245.227.466.227z" style="fill:var(--color17, #ad1619)"/>
      <path fill="#005bbf" d="M15.415 20.953h2v.889s-.25-.111-.5-.111-.5.111-.5.111-.25-.111-.5-.111-.5.111-.5.111v-.889z" style="fill:var(--color18, #005bbf)"/>
      <path fill="#fff" d="m15.398 21.668-.044-.107c.18-.08.361-.12.542-.12a.58.58 0 0 1 .282.063c.091.041.139.053.238.053s.147-.013.238-.053a.592.592 0 0 1 .282-.063c.181 0 .362.04.542.12l-.044.107a1.221 1.221 0 0 0-.498-.111c-.1 0-.147.013-.238.053-.104.046-.165.063-.282.063s-.178-.016-.282-.063a.482.482 0 0 0-.238-.053c-.166 0-.332.037-.498.111zm0-.334-.044-.107c.18-.08.361-.12.542-.12a.58.58 0 0 1 .282.063c.091.041.139.053.238.053s.147-.013.238-.053a.592.592 0 0 1 .282-.063c.181 0 .362.04.542.12l-.044.107a1.221 1.221 0 0 0-.498-.111c-.1 0-.147.013-.238.053-.104.046-.165.063-.282.063s-.178-.016-.282-.063a.482.482 0 0 0-.238-.053c-.166 0-.332.037-.498.111z" style="fill:var(--color12, #fff)"/>
      <path fill="#ad1619" d="M16.576 18.953c0 .235.112.456.312.699l.682-.563.065-.02.036-.284c.067-.525-.157-.816-.62-1.027l-.032-.014c-.063-.028-.202-.089-.248-.111a1.547 1.547 0 0 1-.253-.148 2.661 2.661 0 0 0-.25-.16c.573-.092.882-.16 1.119-.262.568-.245.641-.813.095-1.189-.744-.513-2.737-.559-3.611-.107l.408.79c.429-.222 1.405-.263 2.088-.15l-.351.058-.334.052-.056.009c-.273.042-.459.096-.597.19a.53.53 0 0 0-.122.792c.085.108.196.188.364.285.054.031.112.063.19.105l.041.022.151.08c.16.086.265.148.344.205.123.089.249.162.392.231.077.037.298.133.297.133l.013.006a.627.627 0 0 0-.121.38zm-11.627.699c.2-.243.312-.464.312-.699a.627.627 0 0 0-.121-.38l.013-.006c-.001.001.22-.096.297-.133.143-.069.269-.141.392-.231.078-.057.184-.119.344-.205l.151-.08.041-.022c.078-.042.136-.073.19-.105.168-.097.279-.178.364-.285a.532.532 0 0 0-.122-.792c-.138-.094-.324-.148-.597-.19l-.057-.009a46.422 46.422 0 0 1-.685-.11c.683-.114 1.659-.072 2.088.15l.408-.79c-.875-.452-2.867-.405-3.611.107-.546.376-.473.944.095 1.189.237.102.547.17 1.119.262a3.333 3.333 0 0 0-.25.16 1.59 1.59 0 0 1-.253.148l-.248.111-.032.014c-.463.21-.687.501-.62 1.027l.036.284.065.02.682.563zm-.571-.735-.001.004.001-.003v-.001z" style="fill:var(--color17, #ad1619)"/>
      <path fill="#f1f9ff" d="m5.877 16.397.328.068v.489c-.349.279-1.236.749-1.236.749v-1.305h.908zm10.311 0-.328.068v.489c.349.279 1.236.749 1.236.749v-1.305h-.908z" style="fill:var(--color15, #f1f9ff)"/>
      <path fill="#ad1619" d="M14.661 11.243v-.163c-.572-.41-1.17-.615-1.796-.615a3.587 3.587 0 0 0-1.825-.309v.053c-.033.386-.213 2.629 0 2.98v-2.98zm-3.621 1.955v.003s1.463-.04 1.566-.074c.041-.014.083-.026.126-.039.287-.084.614-.179.808-.719l1.121-1.126z" style="fill:var(--color17, #ad1619)"/>
      <path fill="#c88a02" d="m8.249 12.18.006.001.226.212c.033.06.062.116.087.167a.877.877 0 0 0 .128.309.244.244 0 0 1 .008.053c0 .115.298.183.88.252.456.055.993.091 1.433.097v.001h.112v-.001c.44-.005.978-.042 1.433-.097.582-.07.88-.138.88-.252 0-.075.075-.256.224-.53l1.019-.959-.076-.081-.819.771-.035-.162a.93.93 0 0 1-.261.03v-.151l-.164.089c-.081.044-.196.055-.348.031-.112-.018-.187-.148-.212-.425l-.05-.558-.167.535c-.076.242-.191.349-.355.349-.16 0-.225-.059-.232-.207l-.02-.42-.19.375c-.068.135-.163.197-.297.197-.192 0-.32-.16-.32-.411h-.226c0 .251-.128.411-.32.411-.134 0-.229-.061-.297-.197l-.19-.375-.02.42c-.007.148-.072.207-.232.207-.164 0-.279-.107-.355-.349l-.167-.535-.05.558c-.025.277-.1.406-.212.425-.152.025-.268.013-.348-.031l-.164-.089v.151a.966.966 0 0 1-.261-.03l-.019.087-.74-.696-.076.081.789.742-.001.004zm5.463.017-.129.121-.011.014a5.248 5.248 0 0 0-.112.216c.03-.124.042-.229.042-.229s-.498-.142-1.21-.243a.513.513 0 0 0 .323-.198c.065.172.174.276.33.301a.865.865 0 0 0 .383-.011c.07.057.201.06.383.028zm-1.755-.162a7.931 7.931 0 0 0-.327-.03.489.489 0 0 0 .18-.102.364.364 0 0 0 .147.133zm-.719-.053-.18-.004h-.088l-.153.003a.506.506 0 0 0 .21-.185.513.513 0 0 0 .212.186zm-2.683.329-.104-.097c.124.012.216.001.271-.044a.865.865 0 0 0 .383.011c.156-.025.265-.129.33-.301a.51.51 0 0 0 .311.196c-.613.086-1.07.203-1.192.236zm1.861-.308a9.744 9.744 0 0 0-.316.029.356.356 0 0 0 .14-.129.5.5 0 0 0 .176.101zm2.734.922c.078.036.14 0 .19-.07a.39.39 0 0 0-.008.052.411.411 0 0 1-.03.015 1.059 1.059 0 0 1-.165.048 5.95 5.95 0 0 1-.588.094c-.471.057-1.031.094-1.476.097a13.984 13.984 0 0 1-1.476-.097 6 6 0 0 1-.588-.094 1.304 1.304 0 0 1-.146-.041l.012-.005c.243-.114 1.849-.22 2.137-.239.289.018 1.895.125 2.137.239zm.306-.02-.001.001.001-.001z" style="fill:var(--color16, #c88a02)"/>
      <path fill="#005bbf" d="M11.026 9.399a.333.333 0 1 0 0-.666.333.333 0 0 0 0 .666z" style="fill:var(--color18, #005bbf)"/>
      <path fill="#c88a02" d="M10.809 11.036a.427.427 0 0 0 .032.101.43.43 0 0 0-.149-.026c-.153 0-.278.075-.278.167s.124.167.278.167c.15 0 .272-.071.278-.16.006.089.128.16.278.16.153 0 .278-.075.278-.167s-.124-.167-.278-.167a.472.472 0 0 0-.109.013.412.412 0 0 0-.003-.152c-.029-.151-.126-.258-.217-.241s-.14.154-.111.305zm-1.635.212a.427.427 0 0 1-.032-.101c-.029-.151.02-.287.111-.305s.187.09.217.241a.412.412 0 0 1 .003.152.418.418 0 0 1 .109-.013c.153 0 .278.075.278.167s-.124.167-.278.167c-.151 0-.274-.072-.278-.162-.004.09-.127.162-.278.162-.153 0-.278-.075-.278-.167s.124-.167.278-.167c.055 0 .106.009.149.026zm.129.136zm3.352-.034c-.013.091-.146.148-.298.126s-.265-.113-.252-.204.146-.148.298-.126a.435.435 0 0 1 .144.046.426.426 0 0 1-.018-.104c-.008-.153.06-.281.152-.286s.173.116.181.269a.427.427 0 0 1-.018.151.453.453 0 0 1 .11.002c.152.021.265.113.252.204s-.146.148-.298.126c-.152-.021-.265-.113-.252-.204l.001-.005-.001.005zm1.058.44c.135.072.28.065.324-.017l.002-.004a.112.112 0 0 0 .047.03c.088.027.196-.07.241-.217s.01-.288-.078-.314-.196.07-.241.217a.45.45 0 0 0-.019.104.421.421 0 0 0-.119-.093c-.136-.072-.28-.065-.324.017s.032.206.167.278zm-5.453.034c-.136.072-.28.065-.324-.017a.008.008 0 0 1-.002-.004.112.112 0 0 1-.047.03c-.088.027-.196-.07-.241-.217s-.01-.287.078-.314c.088-.027.196.07.241.217a.45.45 0 0 1 .019.104.421.421 0 0 1 .119-.093c.136-.072.28-.065.324.017s-.032.206-.167.278zm2.641-3.686h.232v.146h.152v.232h-.152v.463h.152v.232h-.536v-.232h.153v-.463h-.153v-.232h.153v-.146z" style="fill:var(--color16, #c88a02)"/>
      <path fill="#c88a02" d="M10.859 9.396h.445v1.445h-.445V9.396z" style="fill:var(--color16, #c88a02)"/>
      <path fill="#fff" d="m9.069 9.638-.002.111c-.985-.017-1.551.127-1.694.413-.148.296-.121.657.087 1.084l-.1.049c-.222-.457-.252-.852-.087-1.183.17-.34.768-.492 1.795-.475z" style="fill:var(--color12, #fff)"/>
      <path fill="#fff" d="m9.26 10.623-.057.095c-.215-.128-.322-.347-.322-.648 0-.433.223-.687.717-.861.315-.111.745-.065 1.292.133l-.038.104c-.525-.19-.931-.233-1.217-.132-.453.159-.642.375-.642.756 0 .264.089.446.268.553z" style="fill:var(--color12, #fff)"/>
      <path fill="#c88a02" d="m7.601 11.076-.21.074c-.218-.62-.155-1.04.216-1.222.328-.16.805-.225 1.435-.2l-.009.222c-.596-.024-1.04.036-1.328.177-.244.119-.289.422-.104.948z" style="fill:var(--color16, #c88a02)"/>
      <path fill="#c88a02" d="M10.051 9.49c-.508 0-.717.124-.836.489-.076.233-.002.432.237.617l-.136.176c-.309-.24-.418-.534-.312-.862.152-.466.45-.643 1.047-.643.392 0 .696.103.909.312l.033.033v1.072h-.222v-.977c-.166-.144-.404-.218-.72-.218z" style="fill:var(--color16, #c88a02)"/>
      <path fill="#fff" d="m12.948 9.749.002.111c.985-.017 1.551.127 1.694.413.148.296.121.657-.087 1.084l.1.049c.222-.457.252-.852.087-1.183-.17-.34-.768-.492-1.796-.475z" style="fill:var(--color12, #fff)"/>
      <path fill="#fff" d="m12.6 10.646.057.095c.215-.128.322-.347.322-.648 0-.433-.223-.687-.717-.861-.315-.111-.745-.065-1.292.133l.038.104c.525-.19.931-.233 1.217-.132.453.159.642.375.642.756 0 .264-.089.446-.268.553z" style="fill:var(--color12, #fff)"/>
      <path fill="#c88a02" d="m14.486 11.187.21.074c.218-.62.155-1.04-.216-1.222-.328-.16-.805-.225-1.435-.199l.009.222c.596-.024 1.04.036 1.328.177.244.119.289.422.104.948z" style="fill:var(--color16, #c88a02)"/>
      <path fill="#c88a02" d="M12.023 9.507c.508 0 .717.124.836.489.076.233.002.432-.237.617l.136.176c.309-.24.418-.534.312-.862-.152-.466-.45-.643-1.047-.643-.391 0-.696.103-.909.312l-.033.033v1.072h.222v-.977c.166-.144.404-.218.72-.218z" style="fill:var(--color16, #c88a02)"/>
      <path fill="#e1e5e8" d="M7.414 13.285h7.224v6.49s-.537 2.178-3.612 2.178-3.612-2.236-3.612-2.236v-6.433z" opacity=".3" style="fill:var(--color19, #e1e5e8)"/>
      <path fill="#ffc034" d="M7.414 17.286h3.667v4.334H7.414v-4.334z" style="fill:var(--color20, #ffc034)"/>
      <path fill="#ad1619" d="M7.859 17.508h.445v4.112h-.445v-4.112zm1.555 0h.445v4.112h-.445v-4.112zm-.778 0h.445v4.112h-.445v-4.112zm1.556 0h.445v4.112h-.445v-4.112zm-2.778-4.334h3.667v4.223H7.414v-4.223z" style="fill:var(--color17, #ad1619)"/>
      <path fill="#ad1619" d="M10.97 17.175h3.667v4.223H10.97v-4.223z" style="fill:var(--color17, #ad1619)"/>
      <path fill="#f1f9ff" d="M10.97 13.285h3.89v4.112h-3.89v-4.112z" style="fill:var(--color15, #f1f9ff)"/>
      <path fill="#c88a02" d="M8.97 13.619h.333v.922h.222v-.461h.333v.461h.333v.576h-.333v1.037h.333v.576h-2v-.576h.334v-1.037h-.334v-.576h.222v-.461h.333v.461h.223v-.922z" style="fill:var(--color16, #c88a02)"/>
      <path fill="#c37c9c" d="M12.729 14.34c-.004.001-.006.002-.002.004.041.015.101.065.176.171a.624.624 0 0 1-.14.069 1.414 1.414 0 0 1-.279.074l.005.031a.836.836 0 0 1-.238-.213 1.255 1.255 0 0 0-.306-.273l.011-.027-.31-.123c-.083.21-.091.297.046.389l.036.021c.029.017.067.038.085.05a.89.89 0 0 1 .181.174c.175.213.36.339.551.369l.023.151.068-.012.124.213-.027.002c-.185.019-.281.169-.223.36.021.068.047.135.084.219l.038.086a1.115 1.115 0 0 0-.301-.059c-.169.005-.23.127-.208.269l.329-.052c.005.031-.036.114-.112.116.024-.001.111.02.282.07.23.067.414.013.401-.215a.544.544 0 0 0-.049-.179l-.075-.171a2.69 2.69 0 0 1-.043-.104c.036.007.081.018.134.034l.012.004.039.054c.05.069.053.088.042.12a.366.366 0 0 0-.012.035.15.15 0 0 0-.004.073c.013.073.063.114.162.159l.093-.202a.548.548 0 0 1-.023-.011.273.273 0 0 0 .005-.139c.031.007.057.01.083.01v-.333c-.011 0-.032-.006-.223-.066l-.08-.024-.034-.01a9.814 9.814 0 0 1-.189-.316c.033-.01.066-.022.1-.034.174-.066.313-.149.407-.269.146-.186.146-.421-.004-.634-.262-.373-.57-.484-.834-.379a.472.472 0 0 0-.094.051l.33.447a.155.155 0 0 1-.03.018l-.005.002z" style="fill:var(--color21, #c37c9c)"/>
      <path fill="#c88a02" d="m12.878 13.812.228-.244.478.446-.228.244-.478-.446z" style="fill:var(--color16, #c88a02)"/>
      <path fill="#ffc034" d="M14.248 20.108v-2.433H11.47v2.413l.004.019c.141.599.62.902 1.385.902s1.243-.295 1.384-.882l.005-.019zm-1.389.567c-.614 0-.949-.207-1.056-.627v-2.04h2.112v2.059c-.106.407-.442.608-1.056.608z" style="fill:var(--color20, #ffc034)"/>
      <path fill="#ffc034" d="M12.974 17.878h-.232v1.103l-.913-.993-.164.15.825.898h-.748v.333h.766l-.844.918.164.15.913-.992v1.289h.232v-1.173l.806.877.164-.15-.844-.918h.941v-.333h-.923l.825-.898-.164-.15-.806.877v-.987z" style="fill:var(--color20, #ffc034)"/>
      <path fill="#f1f9ff" d="M13.378 21.4s-2.354.185-2.354-1.333c0 0-.022 1.333-2.48 1.333v1.198h4.834V21.4z" style="fill:var(--color15, #f1f9ff)"/>
      <path fill="#005bbf" stroke="#ad1619" stroke-width="1.158" d="M11.025 18.175c.46 0 .834-.398.834-.889s-.373-.889-.834-.889c-.46 0-.834.398-.834.889s.373.889.834.889z" style="fill:var(--color18, #005bbf);stroke:var(--color17, #ad1619)"/>
    </symbol>
    <symbol id="icon-star" viewBox="0 0 32 32">
      <path fill="#4640de" stroke="#4640de" stroke-linecap="round" stroke-linejoin="round" stroke-width="1.412" d="m16.471 2.588 3.999 8.101 8.942 1.307-6.471 6.302 1.527 8.904-7.998-4.206-7.998 4.206 1.527-8.904-6.471-6.302 8.942-1.307 3.999-8.101z" style="fill:var(--color1, #4640de);stroke:var(--color1, #4640de)"/>
    </symbol>
    <symbol id="icon-tv" viewBox="0 0 32 32">
      <path fill="none" stroke="#4640de" stroke-linecap="round" stroke-linejoin="round" stroke-width="2.667" d="m13 22.667-1 4L10.667 28h10.667l-1.333-1.333-1-4h-6zm-9-5.334v0zm2.667 5.334h18.667A2.668 2.668 0 0 0 28.001 20V6.667A2.668 2.668 0 0 0 25.334 4H6.667A2.668 2.668 0 0 0 4 6.667V20a2.668 2.668 0 0 0 2.667 2.667z" style="stroke:var(--color1, #4640de)"/>
    </symbol>
    <symbol id="icon-twitter" viewBox="0 0 32 32">
      <path fill="#4640de" d="M29.333 7.733a11.305 11.305 0 0 1-3.147.853 5.506 5.506 0 0 0 2.413-3.027 10.936 10.936 0 0 1-3.48 1.333 5.466 5.466 0 0 0-9.333 4.987 15.514 15.514 0 0 1-11.267-5.72 5.544 5.544 0 0 0-.733 2.76 5.453 5.453 0 0 0 2.426 4.547 5.407 5.407 0 0 1-2.48-.68v.067a5.47 5.47 0 0 0 4.4 5.334c-.476.145-.97.221-1.467.227a6.557 6.557 0 0 1-1.027-.093 5.477 5.477 0 0 0 5.107 3.786 10.96 10.96 0 0 1-8.08 2.267 15.43 15.43 0 0 0 8.387 2.467 15.44 15.44 0 0 0 14.457-9.585 15.463 15.463 0 0 0 1.157-5.988v-.707a11.24 11.24 0 0 0 2.667-2.827z" style="fill:var(--color1, #4640de)"/>
    </symbol>
    <symbol id="icon-wc" viewBox="0 0 32 32">
      <path fill="#4640de" d="M7.333 29.333v-10h-2V12c0-.733.261-1.361.783-1.883s1.15-.783 1.883-.783h4c.733 0 1.361.261 1.883.783s.783 1.15.783 1.883v7.333h-2v10H7.332zM10 8c-.733 0-1.361-.261-1.883-.783s-.783-1.15-.783-1.883c0-.733.261-1.361.783-1.883s1.15-.783 1.883-.783c.733 0 1.361.261 1.883.783s.783 1.15.783 1.883c0 .733-.261 1.361-.783 1.883S10.733 8 10 8zm10 21.333v-8h-4l3.4-10.2c.178-.578.506-1.022.983-1.333S21.4 9.333 22 9.333c.6 0 1.139.156 1.617.467s.806.756.983 1.333l3.4 10.2h-4v8h-4zM22 8c-.733 0-1.361-.261-1.883-.783s-.783-1.15-.783-1.883c0-.733.261-1.361.783-1.883s1.15-.783 1.883-.783c.733 0 1.361.261 1.883.783s.783 1.15.783 1.883c0 .733-.261 1.361-.783 1.883S22.733 8 22 8z" style="fill:var(--color1, #4640de)"/>
    </symbol>
    <symbol id="icon-web" viewBox="0 0 32 32">
      <path fill="none" stroke="#4640de" stroke-linecap="round" stroke-linejoin="round" stroke-width="2.667" d="M16 28c6.627 0 12-5.373 12-12S22.627 4 16 4 4 9.373 4 16s5.373 12 12 12zM4.8 12h22.4M4.8 20h22.4" style="stroke:var(--color1, #4640de)"/>
      <path fill="none" stroke="#4640de" stroke-linecap="round" stroke-linejoin="round" stroke-width="2.667" d="M15.334 4a22.667 22.667 0 0 0 0 24m1.333-24a22.667 22.667 0 0 1 0 24" style="stroke:var(--color1, #4640de)"/>
    </symbol>
    <symbol id="icon-weekend" viewBox="0 0 32 32">
      <path fill="#4640de" d="M5.333 9.333c0-1.111.389-2.056 1.167-2.833s1.722-1.167 2.833-1.167h13.333c1.111 0 2.056.389 2.833 1.167s1.167 1.722 1.167 2.833V12c1.111 0 2.056.389 2.833 1.167s1.167 1.722 1.167 2.833v6.667c0 1.111-.389 2.056-1.167 2.833s-1.722 1.167-2.833 1.167H5.333c-1.111 0-2.056-.389-2.833-1.167s-1.167-1.722-1.167-2.833V16c0-1.111.389-2.056 1.167-2.833S4.222 12 5.333 12V9.333zm2.667 0v3.733c.4.378.722.811.967 1.3s.367 1.033.367 1.633v2.667h13.333v-2.667c0-.6.122-1.144.367-1.633s.567-.922.967-1.3V9.333c0-.378-.128-.694-.383-.95S23.046 8 22.668 8H9.335c-.378 0-.694.128-.95.383s-.383.572-.383.95zm17.333 12H6.666V16c0-.178-.033-.35-.1-.517a1.275 1.275 0 0 0-.716-.716 1.39 1.39 0 0 0-.517-.1c-.378 0-.694.128-.95.383S4 15.622 4 16v6.667c0 .378.128.694.383.95s.572.383.95.383h21.333c.378 0 .694-.128.95-.383s.383-.572.383-.95V16c0-.378-.128-.694-.383-.95s-.572-.383-.95-.383c-.178 0-.35.033-.517.1a1.275 1.275 0 0 0-.716.716 1.39 1.39 0 0 0-.1.517v5.333z" style="fill:var(--color1, #4640de)"/>
    </symbol>
    <symbol id="icon-wifi" viewBox="0 0 32 32">
      <path fill="#4640de" d="M16 28c-.933 0-1.722-.322-2.367-.967s-.967-1.433-.967-2.367c0-.933.322-1.722.967-2.367s1.433-.967 2.367-.967c.933 0 1.722.322 2.367.967s.967 1.433.967 2.367c0 .933-.322 1.722-.967 2.367S16.934 28 16 28zm-7.533-7.533-2.8-2.867c1.311-1.311 2.85-2.35 4.617-3.117s3.672-1.15 5.717-1.15c2.044 0 3.95.389 5.717 1.167s3.306 1.833 4.617 3.167l-2.8 2.8c-.978-.978-2.111-1.744-3.4-2.3s-2.667-.833-4.133-.833c-1.467 0-2.844.278-4.133.833s-2.422 1.322-3.4 2.3zM2.8 14.8 0 12c2.044-2.089 4.433-3.722 7.167-4.9S12.845 5.333 16 5.333c3.156 0 6.1.589 8.833 1.767S29.955 9.911 32 12l-2.8 2.8c-1.711-1.711-3.694-3.05-5.95-4.017s-4.672-1.45-7.25-1.45c-2.578 0-4.994.483-7.25 1.45S4.511 13.089 2.8 14.8z" style="fill:var(--color1, #4640de)"/>
    </symbol>

    <symbol id="icon-phone-1" viewBox="0 0 32 32">
      <path fill="#26a4ff" style="fill: var(--color1, #26a4ff)" d="M23.267 30.333c-1.507 0-3.093-0.36-4.733-1.053-1.6-0.68-3.213-1.613-4.787-2.747-1.56-1.147-3.067-2.427-4.493-3.827-1.413-1.427-2.693-2.933-3.827-4.48-1.147-1.6-2.067-3.2-2.72-4.747-0.693-1.653-1.040-3.253-1.040-4.76 0-1.040 0.187-2.027 0.547-2.947 0.373-0.947 0.973-1.827 1.787-2.587 1.027-1.013 2.2-1.52 3.453-1.52 0.52 0 1.053 0.12 1.507 0.333 0.52 0.24 0.96 0.6 1.28 1.080l3.093 4.36c0.28 0.387 0.493 0.76 0.64 1.133 0.173 0.4 0.267 0.8 0.267 1.187 0 0.507-0.147 1-0.427 1.467-0.2 0.36-0.507 0.747-0.893 1.133l-0.907 0.947c0.013 0.040 0.027 0.067 0.040 0.093 0.16 0.28 0.48 0.76 1.093 1.48 0.653 0.747 1.267 1.427 1.88 2.053 0.787 0.773 1.44 1.387 2.053 1.893 0.76 0.64 1.253 0.96 1.547 1.107l-0.027 0.067 0.973-0.96c0.413-0.413 0.813-0.72 1.2-0.92 0.733-0.453 1.667-0.533 2.6-0.147 0.347 0.147 0.72 0.347 1.12 0.627l4.427 3.147c0.493 0.333 0.853 0.76 1.067 1.267 0.2 0.507 0.293 0.973 0.293 1.44 0 0.64-0.147 1.28-0.427 1.88s-0.627 1.12-1.067 1.6c-0.76 0.84-1.587 1.44-2.547 1.827-0.92 0.373-1.92 0.573-2.973 0.573zM7.453 3.667c-0.733 0-1.413 0.32-2.067 0.96-0.613 0.573-1.040 1.2-1.307 1.88-0.28 0.693-0.413 1.427-0.413 2.213 0 1.24 0.293 2.587 0.88 3.973 0.6 1.413 1.44 2.88 2.507 4.347s2.28 2.893 3.613 4.24c1.333 1.32 2.773 2.547 4.253 3.627 1.44 1.053 2.92 1.907 4.387 2.52 2.28 0.973 4.413 1.2 6.173 0.467 0.68-0.28 1.28-0.707 1.827-1.32 0.307-0.333 0.547-0.693 0.747-1.12 0.16-0.333 0.24-0.68 0.24-1.027 0-0.213-0.040-0.427-0.147-0.667-0.040-0.080-0.12-0.227-0.373-0.4l-4.427-3.147c-0.267-0.187-0.507-0.32-0.733-0.413-0.293-0.12-0.413-0.24-0.867 0.040-0.267 0.133-0.507 0.333-0.773 0.6l-1.013 1c-0.52 0.507-1.32 0.627-1.933 0.4l-0.36-0.16c-0.547-0.293-1.187-0.747-1.893-1.347-0.64-0.547-1.333-1.187-2.173-2.013-0.653-0.667-1.307-1.373-1.987-2.16-0.627-0.733-1.080-1.36-1.36-1.88l-0.16-0.4c-0.080-0.307-0.107-0.48-0.107-0.667 0-0.48 0.173-0.907 0.507-1.24l1-1.040c0.267-0.267 0.467-0.52 0.6-0.747 0.107-0.173 0.147-0.32 0.147-0.453 0-0.107-0.040-0.267-0.107-0.427-0.093-0.213-0.24-0.453-0.427-0.707l-3.093-4.373c-0.133-0.187-0.293-0.32-0.493-0.413-0.213-0.093-0.44-0.147-0.667-0.147zM18.6 20.013l-0.213 0.907 0.36-0.933c-0.067-0.013-0.12 0-0.147 0.027z"></path>
    </symbol>

    <symbol id="icon-facebook-footer" viewBox="0 0 32 32">
      <path d="M20.16 7.093h2.507v-4.24c-1.214-0.126-2.433-0.188-3.653-0.187-3.627 0-6.107 2.213-6.107 6.267v3.493h-4.093v4.747h4.093v12.16h4.907v-12.16h4.080l0.613-4.747h-4.693v-3.027c0-1.4 0.373-2.307 2.347-2.307z"></path>
    </symbol>

    <symbol id="icon-twitter-footer" viewBox="0 0 32 32">
      <path d="M29.333 7.733c-1.002 0.435-2.062 0.722-3.147 0.853 1.144-0.684 2.002-1.759 2.413-3.027-1.075 0.64-2.252 1.091-3.48 1.333-0.821-0.89-1.913-1.482-3.107-1.684s-2.42-0.002-3.488 0.568c-1.068 0.57-1.916 1.479-2.411 2.584s-0.611 2.342-0.327 3.519c-2.174-0.11-4.301-0.676-6.242-1.662s-3.653-2.368-5.025-4.058c-0.481 0.84-0.734 1.792-0.733 2.76-0.002 0.899 0.219 1.785 0.642 2.578s1.036 1.47 1.784 1.969c-0.869-0.024-1.72-0.257-2.48-0.68v0.067c0.007 1.26 0.448 2.479 1.25 3.451s1.915 1.637 3.15 1.883c-0.476 0.145-0.97 0.221-1.467 0.227-0.344-0.004-0.687-0.035-1.027-0.093 0.352 1.084 1.033 2.031 1.948 2.709s2.019 1.055 3.159 1.077c-1.924 1.514-4.299 2.34-6.747 2.347-0.446 0.001-0.891-0.025-1.333-0.080 2.499 1.614 5.412 2.47 8.387 2.467 2.053 0.021 4.089-0.367 5.991-1.141s3.629-1.92 5.083-3.37c1.454-1.45 2.604-3.175 3.383-5.074s1.173-3.935 1.157-5.988c0-0.227 0-0.467 0-0.707 1.046-0.78 1.949-1.737 2.667-2.827z"></path>
    </symbol>

    <symbol id="icon-instagram-footer" viewBox="0 0 32 32">
      <path d="M16 2.881c4.275 0 4.781 0.019 6.462 0.094 1.563 0.069 2.406 0.331 2.969 0.55 0.744 0.288 1.281 0.638 1.837 1.194 0.563 0.563 0.906 1.094 1.2 1.838 0.219 0.563 0.481 1.412 0.55 2.969 0.075 1.688 0.094 2.194 0.094 6.463s-0.019 4.781-0.094 6.463c-0.069 1.563-0.331 2.406-0.55 2.969-0.288 0.744-0.637 1.281-1.194 1.837-0.563 0.563-1.094 0.906-1.837 1.2-0.563 0.219-1.413 0.481-2.969 0.55-1.688 0.075-2.194 0.094-6.463 0.094s-4.781-0.019-6.463-0.094c-1.563-0.069-2.406-0.331-2.969-0.55-0.744-0.288-1.281-0.637-1.838-1.194-0.563-0.563-0.906-1.094-1.2-1.837-0.219-0.563-0.481-1.413-0.55-2.969-0.075-1.688-0.094-2.194-0.094-6.463s0.019-4.781 0.094-6.463c0.069-1.563 0.331-2.406 0.55-2.969 0.288-0.744 0.638-1.281 1.194-1.838 0.563-0.563 1.094-0.906 1.838-1.2 0.563-0.219 1.412-0.481 2.969-0.55 1.681-0.075 2.188-0.094 6.463-0.094zM16 0c-4.344 0-4.887 0.019-6.594 0.094-1.7 0.075-2.869 0.35-3.881 0.744-1.056 0.412-1.95 0.956-2.837 1.85-0.894 0.888-1.438 1.781-1.85 2.831-0.394 1.019-0.669 2.181-0.744 3.881-0.075 1.713-0.094 2.256-0.094 6.6s0.019 4.887 0.094 6.594c0.075 1.7 0.35 2.869 0.744 3.881 0.413 1.056 0.956 1.95 1.85 2.837 0.887 0.887 1.781 1.438 2.831 1.844 1.019 0.394 2.181 0.669 3.881 0.744 1.706 0.075 2.25 0.094 6.594 0.094s4.888-0.019 6.594-0.094c1.7-0.075 2.869-0.35 3.881-0.744 1.050-0.406 1.944-0.956 2.831-1.844s1.438-1.781 1.844-2.831c0.394-1.019 0.669-2.181 0.744-3.881 0.075-1.706 0.094-2.25 0.094-6.594s-0.019-4.887-0.094-6.594c-0.075-1.7-0.35-2.869-0.744-3.881-0.394-1.063-0.938-1.956-1.831-2.844-0.887-0.887-1.781-1.438-2.831-1.844-1.019-0.394-2.181-0.669-3.881-0.744-1.712-0.081-2.256-0.1-6.6-0.1v0z"></path>
      <path d="M16 7.781c-4.537 0-8.219 3.681-8.219 8.219s3.681 8.219 8.219 8.219 8.219-3.681 8.219-8.219c0-4.537-3.681-8.219-8.219-8.219zM16 21.331c-2.944 0-5.331-2.387-5.331-5.331s2.387-5.331 5.331-5.331c2.944 0 5.331 2.387 5.331 5.331s-2.387 5.331-5.331 5.331z"></path>
      <path d="M26.462 7.456c0 1.060-0.859 1.919-1.919 1.919s-1.919-0.859-1.919-1.919c0-1.060 0.859-1.919 1.919-1.919s1.919 0.859 1.919 1.919z"></path>
    </symbol>

    <symbol id="icon-linkedin-footer" viewBox="0 0 32 32">
      <path d="M12 12h5.535v2.837h0.079c0.77-1.381 2.655-2.837 5.464-2.837 5.842 0 6.922 3.637 6.922 8.367v9.633h-5.769v-8.54c0-2.037-0.042-4.657-3.001-4.657-3.005 0-3.463 2.218-3.463 4.509v8.688h-5.767v-18z"></path>
      <path d="M2 12h6v18h-6v-18z"></path>
      <path d="M8 7c0 1.657-1.343 3-3 3s-3-1.343-3-3c0-1.657 1.343-3 3-3s3 1.343 3 3z"></path>
    </symbol>

   <symbol id="icon-web-footer" viewBox="0 0 32 32">
      <path d="M15 2c-8.284 0-15 6.716-15 15s6.716 15 15 15c8.284 0 15-6.716 15-15s-6.716-15-15-15zM23.487 22c0.268-1.264 0.437-2.606 0.492-4h3.983c-0.104 1.381-0.426 2.722-0.959 4h-3.516zM6.513 12c-0.268 1.264-0.437 2.606-0.492 4h-3.983c0.104-1.381 0.426-2.722 0.959-4h3.516zM21.439 12c0.3 1.28 0.481 2.62 0.54 4h-5.979v-4h5.439zM16 10v-5.854c0.456 0.133 0.908 0.355 1.351 0.668 0.831 0.586 1.625 1.488 2.298 2.609 0.465 0.775 0.867 1.638 1.203 2.578h-4.852zM10.351 7.422c0.673-1.121 1.467-2.023 2.298-2.609 0.443-0.313 0.895-0.535 1.351-0.668v5.854h-4.852c0.336-0.94 0.738-1.803 1.203-2.578zM14 12v4h-5.979c0.059-1.38 0.24-2.72 0.54-4h5.439zM2.997 22c-0.533-1.278-0.854-2.619-0.959-4h3.983c0.055 1.394 0.224 2.736 0.492 4h-3.516zM8.021 18h5.979v4h-5.439c-0.3-1.28-0.481-2.62-0.54-4zM14 24v5.854c-0.456-0.133-0.908-0.355-1.351-0.668-0.831-0.586-1.625-1.488-2.298-2.609-0.465-0.775-0.867-1.638-1.203-2.578h4.852zM19.649 26.578c-0.673 1.121-1.467 2.023-2.298 2.609-0.443 0.312-0.895 0.535-1.351 0.668v-5.854h4.852c-0.336 0.94-0.738 1.802-1.203 2.578zM16 22v-4h5.979c-0.059 1.38-0.24 2.72-0.54 4h-5.439zM23.98 16c-0.055-1.394-0.224-2.736-0.492-4h3.516c0.533 1.278 0.855 2.619 0.959 4h-3.983zM25.958 10h-2.997c-0.582-1.836-1.387-3.447-2.354-4.732 1.329 0.636 2.533 1.488 3.585 2.54 0.671 0.671 1.261 1.404 1.766 2.192zM5.808 7.808c1.052-1.052 2.256-1.904 3.585-2.54-0.967 1.285-1.771 2.896-2.354 4.732h-2.997c0.504-0.788 1.094-1.521 1.766-2.192zM4.042 24h2.997c0.583 1.836 1.387 3.447 2.354 4.732-1.329-0.636-2.533-1.488-3.585-2.54-0.671-0.671-1.261-1.404-1.766-2.192zM24.192 26.192c-1.052 1.052-2.256 1.904-3.585 2.54 0.967-1.285 1.771-2.896 2.354-4.732h2.997c-0.504 0.788-1.094 1.521-1.766 2.192z"></path>
      </symbol>
  </defs>
</svg>
