<svg aria-hidden="true" style="position: absolute; width: 0; height: 0; overflow: hidden;" version="1.1" xmlns="http://www.w3.org/2000/svg" xmlns:xlink="http://www.w3.org/1999/xlink">
<defs>
<symbol id="icon-arrow-down" viewBox="0 0 32 32">
<path fill="none" stroke="#4640de" style="stroke: var(--color1, #4640de)" stroke-linejoin="round" stroke-linecap="round" stroke-miterlimit="4" stroke-width="4" d="M30 9l-14 14-14-14"></path>
</symbol>
<symbol id="icon-autopark" viewBox="0 0 32 32">
<path fill="none" stroke="#26a4ff" style="stroke: var(--color2, #26a4ff)" stroke-linejoin="round" stroke-linecap="round" stroke-miterlimit="4" stroke-width="2.6667" d="M28 17.333c0-5.16-4.493-9.333-13.333-9.333h-10.667"></path>
<path fill="none" stroke="#26a4ff" style="stroke: var(--color2, #26a4ff)" stroke-linejoin="round" stroke-linecap="round" stroke-miterlimit="4" stroke-width="2.6667" d="M4 20h21.333c0.707 0 1.385-0.281 1.886-0.781s0.781-1.178 0.781-1.886"></path>
<path fill="none" stroke="#26a4ff" style="stroke: var(--color2, #26a4ff)" stroke-linejoin="round" stroke-linecap="round" stroke-miterlimit="4" stroke-width="2.6667" d="M4 8v6.667h23.333"></path>
<path fill="none" stroke="#26a4ff" style="stroke: var(--color2, #26a4ff)" stroke-linejoin="round" stroke-linecap="round" stroke-miterlimit="4" stroke-width="2.6667" d="M4 13.333v5.333"></path>
<path fill="none" stroke="#26a4ff" style="stroke: var(--color2, #26a4ff)" stroke-linejoin="round" stroke-linecap="round" stroke-miterlimit="4" stroke-width="2.6667" d="M10.667 14.667v-6.667"></path>
<path fill="none" stroke="#26a4ff" style="stroke: var(--color2, #26a4ff)" stroke-linejoin="round" stroke-linecap="round" stroke-miterlimit="4" stroke-width="2.6667" d="M17.333 14.667v-6"></path>
<path fill="none" stroke="#26a4ff" style="stroke: var(--color2, #26a4ff)" stroke-linejoin="round" stroke-linecap="round" stroke-miterlimit="4" stroke-width="2.6667" d="M4 25.333h24"></path>
</symbol>
<symbol id="icon-city" viewBox="0 0 32 32">
<path fill="none" stroke="#26a4ff" style="stroke: var(--color2, #26a4ff)" stroke-linejoin="round" stroke-linecap="round" stroke-miterlimit="4" stroke-width="2.6667" d="M4 28h24"></path>
<path fill="none" stroke="#26a4ff" style="stroke: var(--color2, #26a4ff)" stroke-linejoin="round" stroke-linecap="round" stroke-miterlimit="4" stroke-width="2.6667" d="M6.667 28v-18.667l10.667-5.333v24"></path>
<path fill="none" stroke="#26a4ff" style="stroke: var(--color2, #26a4ff)" stroke-linejoin="round" stroke-linecap="round" stroke-miterlimit="4" stroke-width="2.6667" d="M25.333 28v-13.333l-8-5.333"></path>
<path fill="none" stroke="#26a4ff" style="stroke: var(--color2, #26a4ff)" stroke-linejoin="round" stroke-linecap="round" stroke-miterlimit="4" stroke-width="2.6667" d="M12 12v0.013"></path>
<path fill="none" stroke="#26a4ff" style="stroke: var(--color2, #26a4ff)" stroke-linejoin="round" stroke-linecap="round" stroke-miterlimit="4" stroke-width="2.6667" d="M12 16v0.013"></path>
<path fill="none" stroke="#26a4ff" style="stroke: var(--color2, #26a4ff)" stroke-linejoin="round" stroke-linecap="round" stroke-miterlimit="4" stroke-width="2.6667" d="M12 20v0.013"></path>
<path fill="none" stroke="#26a4ff" style="stroke: var(--color2, #26a4ff)" stroke-linejoin="round" stroke-linecap="round" stroke-miterlimit="4" stroke-width="2.6667" d="M12 24v0.013"></path>
</symbol>
<symbol id="icon-condition" viewBox="0 0 32 32">
<path fill="#4640de" style="fill: var(--color1, #4640de)" d="M14.133 29.333c-1.133 0-1.994-0.339-2.583-1.017s-0.883-1.45-0.883-2.317c0-0.578 0.128-1.139 0.383-1.683s0.65-0.994 1.183-1.35c0.489-0.311 0.883-0.711 1.183-1.2s0.506-1.011 0.617-1.567l-0.4-0.2c-0.133-0.067-0.256-0.144-0.367-0.233l-3.067 1.1c-0.378 0.133-0.744 0.244-1.1 0.333s-0.722 0.133-1.1 0.133c-1.4 0-2.639-0.611-3.717-1.833s-1.617-3.011-1.617-5.367c0-1.133 0.339-1.994 1.017-2.583s1.439-0.883 2.283-0.883c0.578 0 1.144 0.128 1.7 0.383s1.011 0.65 1.367 1.183c0.311 0.489 0.711 0.883 1.2 1.183s1.011 0.506 1.567 0.617l0.2-0.4c0.067-0.133 0.144-0.256 0.233-0.367l-1.1-3.067c-0.133-0.378-0.244-0.744-0.333-1.1s-0.133-0.711-0.133-1.067c0-1.422 0.611-2.672 1.833-3.75s3.011-1.617 5.367-1.617c1.133 0 1.994 0.339 2.583 1.017s0.883 1.439 0.883 2.283c0 0.578-0.128 1.144-0.383 1.7s-0.65 1.011-1.183 1.367c-0.489 0.311-0.883 0.711-1.183 1.2s-0.506 1.011-0.617 1.567l0.4 0.2c0.133 0.067 0.256 0.144 0.367 0.233l3.067-1.133c0.378-0.133 0.739-0.239 1.083-0.317s0.706-0.117 1.083-0.117c1.8 0 3.144 0.744 4.033 2.233s1.333 3.144 1.333 4.967c0 1.133-0.356 1.994-1.067 2.583s-1.5 0.883-2.367 0.883c-0.556 0-1.094-0.128-1.617-0.383s-0.961-0.65-1.317-1.183c-0.311-0.489-0.711-0.883-1.2-1.183s-1.011-0.506-1.567-0.617l-0.2 0.4c-0.067 0.133-0.144 0.256-0.233 0.367l1.1 3.067c0.133 0.356 0.244 0.694 0.333 1.017s0.133 0.661 0.133 1.017c0.022 1.444-0.578 2.722-1.8 3.833s-3.022 1.667-5.4 1.667zM16 18c0.556 0 1.028-0.194 1.417-0.583s0.583-0.861 0.583-1.417c0-0.556-0.194-1.028-0.583-1.417s-0.861-0.583-1.417-0.583c-0.556 0-1.028 0.194-1.417 0.583s-0.583 0.861-0.583 1.417c0 0.556 0.194 1.028 0.583 1.417s0.861 0.583 1.417 0.583zM14.467 11.6c0.133-0.044 0.272-0.083 0.417-0.117s0.283-0.061 0.417-0.083c0.178-0.933 0.517-1.8 1.017-2.6s1.161-1.467 1.983-2c0.111-0.089 0.2-0.2 0.267-0.333s0.1-0.3 0.1-0.5c0-0.178-0.067-0.328-0.2-0.45s-0.333-0.183-0.6-0.183c-0.844 0-1.8 0.183-2.867 0.55s-1.622 1.083-1.667 2.15c0 0.2 0.028 0.389 0.083 0.567s0.106 0.344 0.15 0.5l0.9 2.5zM8 18.667c0.311 0 0.678-0.078 1.1-0.233l2.5-0.9c-0.044-0.133-0.083-0.272-0.117-0.417s-0.061-0.283-0.083-0.417c-0.933-0.178-1.8-0.517-2.6-1.017s-1.467-1.161-2-1.983c-0.089-0.111-0.206-0.2-0.35-0.267s-0.306-0.1-0.483-0.1c-0.2 0-0.356 0.067-0.467 0.2s-0.167 0.333-0.167 0.6c0 1.2 0.228 2.256 0.683 3.167s1.117 1.367 1.983 1.367zM14.133 26.667c1.044 0 2.072-0.211 3.083-0.633s1.494-1.156 1.45-2.2c0-0.178-0.028-0.344-0.083-0.5s-0.106-0.3-0.15-0.433l-0.9-2.5c-0.133 0.044-0.272 0.083-0.417 0.117s-0.283 0.061-0.417 0.083c-0.178 0.933-0.517 1.8-1.017 2.6s-1.161 1.467-1.983 2c-0.111 0.089-0.206 0.206-0.283 0.35s-0.106 0.294-0.083 0.45c0.022 0.178 0.089 0.333 0.2 0.467s0.311 0.2 0.6 0.2zM25.9 18.667c0.2 0 0.378-0.056 0.533-0.167s0.233-0.322 0.233-0.633c0-0.844-0.178-1.806-0.533-2.883s-1.078-1.628-2.167-1.65c-0.2 0-0.389 0.022-0.567 0.067s-0.344 0.089-0.5 0.133l-2.5 0.933c0.044 0.133 0.083 0.272 0.117 0.417s0.061 0.283 0.083 0.417c0.933 0.178 1.8 0.517 2.6 1.017s1.467 1.161 2 1.983c0.067 0.111 0.167 0.2 0.3 0.267s0.267 0.1 0.4 0.1z"></path>
</symbol>
<symbol id="icon-de-germany" viewBox="0 0 32 32">
<path fill="#ffd018" style="fill: var(--color3, #ffd018)" d="M0 19.969h31.752v7.938h-31.752v-7.938z"></path>
<path fill="#e31d1c" style="fill: var(--color4, #e31d1c)" d="M0 12.031h31.752v7.938h-31.752v-7.938z"></path>
<path fill="#272727" style="fill: var(--color5, #272727)" d="M0 4.093h31.752v7.938h-31.752v-7.938z"></path>
</symbol>
<symbol id="icon-facebook" viewBox="0 0 32 32">
<path fill="#4640de" style="fill: var(--color1, #4640de)" d="M20.16 7.093h2.507v-4.24c-1.214-0.126-2.433-0.188-3.653-0.187-3.627 0-6.107 2.213-6.107 6.267v3.493h-4.093v4.747h4.093v12.16h4.907v-12.16h4.080l0.613-4.747h-4.693v-3.027c0-1.4 0.373-2.307 2.347-2.307z"></path>
</symbol>
<symbol id="icon-fire" viewBox="0 0 32 32">
<path fill="#26a4ff" style="fill: var(--color2, #26a4ff)" d="M11.29 11.193l-0.003 0.002-0.003 0.003 0.006-0.005zM24.563 10.944c-0.093-0.089-0.196-0.168-0.307-0.233-0.157-0.092-0.331-0.152-0.512-0.174s-0.364-0.007-0.539 0.044c-0.175 0.051-0.337 0.138-0.477 0.255s-0.255 0.261-0.337 0.424c-0.459 0.905-1.093 1.71-1.864 2.37 0.118-0.665 0.177-1.338 0.178-2.013 0.003-2.053-0.539-4.070-1.57-5.846s-2.513-3.247-4.297-4.263c-0.197-0.111-0.418-0.171-0.644-0.173s-0.449 0.053-0.647 0.16c-0.199 0.107-0.367 0.264-0.489 0.454s-0.193 0.408-0.208 0.634c-0.075 1.264-0.405 2.5-0.971 3.633s-1.357 2.139-2.323 2.957l-0.307 0.25c-1.011 0.68-1.905 1.519-2.65 2.483-1.157 1.457-1.958 3.164-2.341 4.986s-0.335 3.706 0.138 5.506c0.473 1.8 1.359 3.465 2.587 4.862s2.765 2.49 4.49 3.191c0.202 0.083 0.422 0.114 0.64 0.092s0.426-0.098 0.608-0.22 0.33-0.287 0.433-0.48c0.103-0.193 0.156-0.408 0.156-0.627-0.001-0.141-0.023-0.282-0.066-0.417-0.298-1.121-0.384-2.289-0.253-3.441 1.262 2.38 3.287 4.266 5.75 5.355 0.301 0.135 0.641 0.153 0.954 0.051 1.946-0.628 3.699-1.743 5.093-3.24s2.381-3.325 2.87-5.31c0.488-1.986 0.46-4.063-0.081-6.035s-1.577-3.773-3.010-5.232zM19.356 28.052c-1.162-0.589-2.187-1.416-3.009-2.427s-1.421-2.184-1.76-3.442c-0.103-0.424-0.183-0.853-0.24-1.285-0.038-0.275-0.161-0.532-0.352-0.734s-0.441-0.339-0.713-0.392c-0.084-0.017-0.17-0.025-0.255-0.025-0.234 0-0.465 0.062-0.667 0.179s-0.371 0.286-0.488 0.489c-1.106 1.908-1.663 4.085-1.607 6.29-0.973-0.757-1.786-1.699-2.392-2.772s-0.993-2.256-1.139-3.48-0.047-2.465 0.29-3.65c0.337-1.185 0.906-2.292 1.675-3.256 0.583-0.758 1.287-1.414 2.083-1.944 0.034-0.022 0.068-0.047 0.099-0.073 0 0 0.396-0.327 0.409-0.335 1.9-1.607 3.251-3.766 3.865-6.177 1.453 1.343 2.421 3.128 2.756 5.078s0.015 3.956-0.907 5.706c-0.122 0.234-0.172 0.498-0.144 0.76s0.133 0.51 0.302 0.712 0.394 0.35 0.646 0.425c0.253 0.075 0.522 0.073 0.773-0.006 2.042-0.64 3.84-1.891 5.15-3.583 0.787 1.163 1.302 2.489 1.506 3.879s0.091 2.807-0.329 4.148c-0.42 1.34-1.138 2.568-2.098 3.593s-2.141 1.819-3.451 2.324v0z"></path>
</symbol>
<symbol id="icon-fr-france" viewBox="0 0 32 32">
<path fill="#f50100" style="fill: var(--color6, #f50100)" d="M21.83 4.093h9.922v23.814h-9.922v-23.814z"></path>
<path fill="#2e42a5" style="fill: var(--color7, #2e42a5)" d="M0 4.093h11.907v23.814h-11.907v-23.814z"></path>
<path fill="#f7fcff" style="fill: var(--color8, #f7fcff)" d="M9.923 4.093h11.907v23.814h-11.907v-23.814z"></path>
</symbol>
<symbol id="icon-instagram" viewBox="0 0 32 32">
<path fill="none" opacity="0.5" stroke="#515b6f" style="stroke: var(--color9, #515b6f)" stroke-linejoin="round" stroke-linecap="round" stroke-miterlimit="4" stroke-width="2.56" d="M20.992 5.76h-10.24c-2.828 0-5.12 2.292-5.12 5.12v10.24c0 2.828 2.292 5.12 5.12 5.12h10.24c2.828 0 5.12-2.292 5.12-5.12v-10.24c0-2.828-2.292-5.12-5.12-5.12z"></path>
<path fill="none" opacity="0.5" stroke="#515b6f" style="stroke: var(--color9, #515b6f)" stroke-linejoin="round" stroke-linecap="round" stroke-miterlimit="4" stroke-width="2.56" d="M15.872 19.84c2.121 0 3.84-1.719 3.84-3.84s-1.719-3.84-3.84-3.84c-2.121 0-3.84 1.719-3.84 3.84s1.719 3.84 3.84 3.84z"></path>
<path fill="none" opacity="0.5" stroke="#515b6f" style="stroke: var(--color9, #515b6f)" stroke-linejoin="round" stroke-linecap="round" stroke-miterlimit="4" stroke-width="2.56" d="M21.632 10.24v0.001"></path>
</symbol>
<symbol id="icon-it-italy" viewBox="0 0 32 32">
<path fill="#c51918" style="fill: var(--color10, #c51918)" d="M21.83 4.093h9.922v23.814h-9.922v-23.814z"></path>
<path fill="#5eaa22" style="fill: var(--color11, #5eaa22)" d="M0 4.093h11.907v23.814h-11.907v-23.814z"></path>
<path fill="#fff" style="fill: var(--color12, #fff)" d="M9.923 4.093h11.907v23.814h-11.907v-23.814z"></path>
</symbol>
<symbol id="icon-linkedin" viewBox="0 0 32 32">
<path fill="none" opacity="0.5" stroke="#515b6f" style="stroke: var(--color9, #515b6f)" stroke-linejoin="round" stroke-linecap="round" stroke-miterlimit="4" stroke-width="2.56" d="M23.552 5.76h-15.36c-1.414 0-2.56 1.146-2.56 2.56v15.36c0 1.414 1.146 2.56 2.56 2.56h15.36c1.414 0 2.56-1.146 2.56-2.56v-15.36c0-1.414-1.146-2.56-2.56-2.56z"></path>
<path fill="none" opacity="0.5" stroke="#515b6f" style="stroke: var(--color9, #515b6f)" stroke-linejoin="round" stroke-linecap="round" stroke-miterlimit="4" stroke-width="2.56" d="M10.752 14.72v6.4"></path>
<path fill="none" opacity="0.5" stroke="#515b6f" style="stroke: var(--color9, #515b6f)" stroke-linejoin="round" stroke-linecap="round" stroke-miterlimit="4" stroke-width="2.56" d="M10.752 10.88v0.013"></path>
<path fill="none" opacity="0.5" stroke="#515b6f" style="stroke: var(--color9, #515b6f)" stroke-linejoin="round" stroke-linecap="round" stroke-miterlimit="4" stroke-width="2.56" d="M15.872 21.12v-6.4"></path>
<path fill="none" opacity="0.5" stroke="#515b6f" style="stroke: var(--color9, #515b6f)" stroke-linejoin="round" stroke-linecap="round" stroke-miterlimit="4" stroke-width="2.56" d="M20.992 21.12v-3.84c0-0.679-0.27-1.33-0.75-1.81s-1.131-0.75-1.81-0.75c-0.679 0-1.33 0.27-1.81 0.75s-0.75 1.131-0.75 1.81"></path>
</symbol>
<symbol id="icon-location" viewBox="0 0 32 32">
<path fill="none" stroke="#26a4ff" style="stroke: var(--color2, #26a4ff)" stroke-linejoin="round" stroke-linecap="round" stroke-miterlimit="4" stroke-width="2.6667" d="M19.333 14.001c0-1.842-1.492-3.334-3.333-3.334-1.842 0-3.334 1.492-3.334 3.334 0 1.84 1.492 3.333 3.334 3.333 1.84 0 3.333-1.492 3.333-3.333z"></path>
<path fill="none" stroke="#26a4ff" style="stroke: var(--color2, #26a4ff)" stroke-linejoin="round" stroke-linecap="round" stroke-miterlimit="4" stroke-width="2.6667" d="M15.999 28c-1.598 0-9.999-6.802-9.999-13.916 0-5.569 4.476-10.084 9.999-10.084s10.001 4.516 10.001 10.084c0 7.113-8.403 13.916-10.001 13.916z"></path>
</symbol>
<symbol id="icon-nl-netherlands" viewBox="0 0 32 32">
<path fill="#f7fcff" style="fill: var(--color8, #f7fcff)" d="M0 4.093v23.814h31.752v-23.814h-31.752z"></path>
<path fill="#e31d1c" style="fill: var(--color4, #e31d1c)" d="M0 4.093v7.938h31.752v-7.938h-31.752z"></path>
<path fill="#3d58db" style="fill: var(--color13, #3d58db)" d="M0 19.969v7.938h31.752v-7.938h-31.752z"></path>
</symbol>
<symbol id="icon-passengers" viewBox="0 0 32 32">
<path fill="#26a4ff" style="fill: var(--color2, #26a4ff)" d="M16 6.667c-0.707 0-1.385 0.281-1.886 0.781s-0.781 1.178-0.781 1.886c0 0.707 0.281 1.386 0.781 1.886s1.178 0.781 1.886 0.781c0.707 0 1.385-0.281 1.886-0.781s0.781-1.178 0.781-1.886c0-0.707-0.281-1.386-0.781-1.886s-1.178-0.781-1.886-0.781zM12.229 5.562c1-1 2.357-1.562 3.771-1.562s2.771 0.562 3.771 1.562c1 1 1.562 2.357 1.562 3.771s-0.562 2.771-1.562 3.771c-1 1-2.357 1.562-3.771 1.562s-2.771-0.562-3.771-1.562c-1-1-1.562-2.357-1.562-3.771s0.562-2.771 1.562-3.771zM6.667 12c-0.354 0-0.693 0.14-0.943 0.391s-0.391 0.589-0.391 0.943c0 0.354 0.14 0.693 0.391 0.943s0.589 0.391 0.943 0.391c0.354 0 0.693-0.141 0.943-0.391s0.391-0.589 0.391-0.943c0-0.354-0.14-0.693-0.391-0.943s-0.589-0.391-0.943-0.391zM3.838 10.505c0.75-0.75 1.768-1.172 2.828-1.172s2.078 0.421 2.828 1.172c0.75 0.75 1.172 1.768 1.172 2.828s-0.421 2.078-1.172 2.828-1.768 1.172-2.828 1.172c-1.061 0-2.078-0.421-2.828-1.172s-1.172-1.768-1.172-2.828c0-1.061 0.421-2.078 1.172-2.828zM25.333 12c-0.354 0-0.693 0.14-0.943 0.391s-0.391 0.589-0.391 0.943c0 0.354 0.141 0.693 0.391 0.943s0.589 0.391 0.943 0.391c0.354 0 0.693-0.141 0.943-0.391s0.391-0.589 0.391-0.943c0-0.354-0.141-0.693-0.391-0.943s-0.589-0.391-0.943-0.391zM22.505 10.505c0.75-0.75 1.767-1.172 2.828-1.172s2.078 0.421 2.828 1.172c0.75 0.75 1.172 1.768 1.172 2.828s-0.421 2.078-1.172 2.828-1.767 1.172-2.828 1.172c-1.061 0-2.078-0.421-2.828-1.172s-1.172-1.767-1.172-2.828c0-1.061 0.421-2.078 1.172-2.828zM16 18.666c1.066 0 2.108 0.319 2.991 0.917 0.832 0.563 1.488 1.35 1.892 2.267l0.321 3.483h-10.409l0.321-3.483c0.404-0.918 1.059-1.704 1.892-2.267 0.883-0.598 1.925-0.917 2.991-0.917zM24 25.333v-1.333c0-0.732-0.098-1.443-0.284-2.12 0.259-0.197 0.552-0.347 0.868-0.439 0.532-0.156 1.099-0.142 1.623 0.040s0.978 0.522 1.299 0.973 0.494 0.992 0.494 1.546c0 0 0-0 0 0v1.333h-4zM22.573 19.437c-0.56-0.806-1.266-1.506-2.087-2.062-1.324-0.896-2.887-1.376-4.486-1.376s-3.162 0.479-4.486 1.376c-0.821 0.556-1.527 1.256-2.087 2.062-0.393-0.237-0.817-0.425-1.262-0.555-1.064-0.311-2.198-0.284-3.245 0.079s-1.955 1.043-2.598 1.947c-0.643 0.903-0.988 1.984-0.988 3.092v2.667c0 0.736 0.597 1.333 1.333 1.333h26.667c0.736 0 1.333-0.597 1.333-1.333v-2.667c-0-1.108-0.345-2.189-0.988-3.092s-1.551-1.583-2.598-1.947c-1.047-0.363-2.181-0.391-3.245-0.079-0.445 0.13-0.869 0.318-1.262 0.555zM8.284 21.88c-0.185 0.677-0.284 1.388-0.284 2.12v1.333h-4v-1.333c0 0 0 0 0 0 0-0.554 0.173-1.095 0.494-1.546s0.775-0.792 1.299-0.973c0.524-0.182 1.091-0.195 1.623-0.040 0.316 0.092 0.61 0.242 0.868 0.439z"></path>
</symbol>
<symbol id="icon-pets" viewBox="0 0 32 32">
<path fill="#4640de" style="fill: var(--color1, #4640de); stroke: var(--color1, #4640de)" stroke="#4640de" stroke-linejoin="miter" stroke-linecap="butt" stroke-miterlimit="4" stroke-width="0.6667" d="M28.625 4.799c-0.457-0.445-1.060-0.68-1.697-0.664-1.259 0.032-2.282 1.099-2.282 2.378v5.933c-0.825-0.29-1.78-0.106-2.438 0.552l-5.847 5.847c-0.131 0.131-0.251 0.27-0.361 0.416-0.11-0.146-0.23-0.285-0.361-0.416l-5.847-5.847c-0.658-0.658-1.614-0.842-2.439-0.552v-5.968c0-0.638-0.251-1.234-0.708-1.679s-1.060-0.681-1.697-0.664c-1.258 0.032-2.282 1.099-2.282 2.378v8.762c0 0.799 0.226 1.579 0.654 2.254l4.306 6.799c0.395 0.624 0.604 1.345 0.604 2.084v2.141c0 0.431 0.35 0.781 0.781 0.781h13.976c0.431 0 0.781-0.35 0.781-0.781v-2.141c0-0.739 0.209-1.459 0.604-2.084l4.306-6.799c0.428-0.675 0.654-1.454 0.654-2.254v-8.797c0-0.637-0.251-1.234-0.708-1.679zM8.947 23.491l-4.306-6.799c-0.269-0.425-0.411-0.915-0.411-1.418v-8.761c0-0.439 0.341-0.805 0.76-0.816 0.213-0.005 0.414 0.073 0.566 0.221s0.236 0.347 0.236 0.56v8.203c0 0.022 0.002 0.043 0.003 0.064 0.022 0.57 0.249 1.133 0.683 1.567l2.85 2.85c0.305 0.305 0.8 0.305 1.105 0s0.305-0.8 0-1.105l-2.85-2.85c-0.305-0.305-0.305-0.8 0-1.105s0.8-0.305 1.105 0l5.846 5.846c0.441 0.441 0.684 1.031 0.684 1.659v6.163h-5.425v-1.36c0-1.035-0.293-2.045-0.847-2.92zM27.771 15.274c0 0.503-0.142 0.993-0.411 1.418l-4.306 6.799c-0.554 0.875-0.847 1.884-0.847 2.92v1.36h-5.425v-6.163c0-0.628 0.243-1.218 0.684-1.659l5.847-5.847c0.305-0.305 0.8-0.305 1.105 0 0.303 0.291 0.303 0.814-0 1.105l-2.849 2.851c-0.305 0.305-0.305 0.8 0 1.105s0.8 0.305 1.105-0l2.849-2.851c0.431-0.431 0.673-1 0.685-1.607 0-0.008 0.001-0.016 0.001-0.024v-8.168c0-0.439 0.341-0.805 0.76-0.816 0.212-0.006 0.414 0.073 0.566 0.221s0.236 0.347 0.236 0.56v8.797z"></path>
<path fill="#4640de" style="fill: var(--color1, #4640de); stroke: var(--color1, #4640de)" stroke="#4640de" stroke-linejoin="miter" stroke-linecap="butt" stroke-miterlimit="4" stroke-width="0.6667" d="M10.556 9.554c0.033 0.036 0.148 0.15 2.337 2.284 1.142 1.113 2.435 2.374 2.539 2.479 0.147 0.153 0.35 0.24 0.563 0.24 0.216 0 0.422-0.089 0.569-0.246 0.111-0.115 1.307-1.278 2.362-2.306 1.848-1.799 2.435-2.371 2.508-2.451 0.017-0.018 0.033-0.037 0.048-0.057 2.525-3.206 0.225-6.805-3.034-6.82-0.885 0.014-1.724 0.317-2.461 0.885-1.898-1.437-3.987-0.97-5.223 0.173-1.668 1.523-1.75 4.068-0.231 5.793 0.007 0.009 0.015 0.017 0.023 0.026zM11.825 4.882c0.796-0.736 2.222-1.105 3.622 0.276 0.149 0.146 0.35 0.227 0.558 0.225s0.407-0.088 0.552-0.238c0.867-0.897 2.366-1.363 3.609-0.267 0.812 0.716 1.323 2.094 0.107 3.631-0.196 0.197-1.433 1.401-2.436 2.377-0.885 0.861-1.469 1.431-1.842 1.795-0.532-0.521-3.885-3.787-4.286-4.183-0.795-0.962-1.095-2.495 0.117-3.615z"></path>
</symbol>
<symbol id="icon-phone" viewBox="0 0 32 32">
<path fill="#4640de" style="fill: var(--color1, #4640de); stroke: var(--color1, #4640de)" stroke="#4640de" stroke-linejoin="miter" stroke-linecap="butt" stroke-miterlimit="4" stroke-width="0.6667" d="M7.453 1.333c0.568 0 1.15 0.13 1.648 0.365h-0.001c0.568 0.262 1.055 0.658 1.411 1.189l3.092 4.361c0.292 0.403 0.521 0.8 0.68 1.204h-0.001c0.185 0.43 0.29 0.872 0.29 1.309-0 0.573-0.166 1.126-0.474 1.638l-0.001-0.001c-0.219 0.391-0.543 0.796-0.939 1.193l0.001 0.001-0.74 0.771c0.168 0.272 0.466 0.698 0.98 1.302 0.649 0.741 1.254 1.414 1.858 2.031h0.001c0.589 0.579 1.098 1.064 1.57 1.48l0.461 0.395 0.003 0.001 0.512 0.415c0.339 0.263 0.599 0.434 0.79 0.547l0.743-0.732c0.421-0.421 0.841-0.747 1.258-0.966l0.159-0.091c0.75-0.402 1.654-0.47 2.552-0.154l0.193 0.074 0.001 0.001 0.281 0.128c0.191 0.093 0.388 0.201 0.591 0.328l0.31 0.204 0.001 0.001 4.421 3.142c0.474 0.321 0.844 0.725 1.090 1.205l0.098 0.21 0.003 0.007 0.139 0.4c0.119 0.395 0.177 0.777 0.177 1.163 0 0.691-0.159 1.379-0.458 2.021-0.294 0.63-0.66 1.177-1.122 1.682l0.001 0.001c-0.789 0.872-1.657 1.502-2.669 1.91l0.001 0.001c-0.96 0.389-2.003 0.598-3.099 0.598-1.56 0-3.191-0.373-4.863-1.079h-0.001c-1.626-0.691-3.26-1.639-4.85-2.784l-0.003-0.001c-1.573-1.156-3.092-2.447-4.53-3.858l-0.003-0.003c-1.425-1.439-2.716-2.958-3.859-4.518l-0.001-0.003c-1.014-1.414-1.855-2.832-2.495-4.219l-0.262-0.593c-0.708-1.687-1.066-3.331-1.066-4.889 0-1.080 0.194-2.108 0.569-3.068l0.001-0.001 0.158-0.37c0.395-0.854 0.969-1.646 1.711-2.339 1.079-1.062 2.332-1.609 3.681-1.609zM7.453 4c-0.624 0-1.225 0.268-1.833 0.865l-0.005 0.005c-0.58 0.542-0.977 1.129-1.224 1.759l-0.001 0.003c-0.263 0.65-0.389 1.341-0.389 2.089 0 1.188 0.282 2.491 0.854 3.844h-0.001c0.589 1.387 1.416 2.831 2.47 4.28l0.402 0.543c0.955 1.261 2.020 2.489 3.176 3.656l0.5 0.487c1.179 1.124 2.432 2.172 3.715 3.108h0.001l0.534 0.38c1.073 0.742 2.161 1.369 3.243 1.865l0.543 0.237 0.417 0.171c2.071 0.805 3.955 0.938 5.497 0.296l0.001-0.001 0.233-0.103c0.536-0.257 1.020-0.624 1.471-1.13l0.004-0.004 0.201-0.236c0.19-0.241 0.35-0.502 0.49-0.799l0.001-0.004 0.091-0.219c0.078-0.22 0.116-0.442 0.116-0.663 0-0.165-0.029-0.33-0.115-0.525-0.014-0.027-0.030-0.057-0.061-0.095-0.035-0.042-0.096-0.101-0.199-0.172l-0.004-0.004-4.426-3.145c-0.188-0.132-0.358-0.233-0.516-0.31l-0.152-0.069c-0.041-0.017-0.079-0.033-0.111-0.047-0.033-0.015-0.059-0.026-0.082-0.035-0.045-0.018-0.066-0.022-0.081-0.023-0.019-0.002-0.089-0.004-0.292 0.121l-0.013 0.008-0.013 0.007c-0.219 0.11-0.429 0.281-0.686 0.538l-0.003 0.001-1.014 1.001c-0.62 0.604-1.558 0.741-2.281 0.474l-0.010-0.004-0.009-0.004-0.372-0.165-0.010-0.005c-0.431-0.231-0.909-0.553-1.424-0.956l-0.527-0.431c-0.647-0.553-1.347-1.199-2.191-2.030l-0.004-0.004c-0.658-0.671-1.317-1.384-2.001-2.176l-0.001-0.001c-0.634-0.741-1.104-1.389-1.4-1.939l-0.009-0.016-0.007-0.018-0.168-0.419-0.005-0.021c-0.083-0.319-0.117-0.523-0.117-0.75 0-0.564 0.204-1.074 0.599-1.471l1-1.040 0.005-0.004 0.176-0.185c0.162-0.181 0.286-0.348 0.372-0.495l0.004-0.007 0.049-0.090c0.039-0.083 0.047-0.144 0.047-0.189-0-0.044-0.022-0.157-0.081-0.298v-0.001c-0.080-0.181-0.211-0.397-0.387-0.635l-0.004-0.005-3.094-4.375c-0.1-0.14-0.216-0.234-0.362-0.302v-0.001c-0.175-0.075-0.354-0.115-0.526-0.115z"></path>
</symbol>
<symbol id="icon-plus" viewBox="0 0 32 32">
<path fill="#4640de" style="fill: var(--color1, #4640de)" d="M16 5.841c0.701 0 1.27 0.569 1.27 1.27v17.778c0 0.701-0.569 1.27-1.27 1.27s-1.27-0.569-1.27-1.27v-17.778c0-0.701 0.569-1.27 1.27-1.27z"></path>
<path fill="#4640de" style="fill: var(--color1, #4640de)" d="M5.842 16c0-0.701 0.569-1.27 1.27-1.27h17.778c0.701 0 1.27 0.569 1.27 1.27s-0.569 1.27-1.27 1.27h-17.778c-0.701 0-1.27-0.569-1.27-1.27z"></path>
</symbol>
<symbol id="icon-sms" viewBox="0 0 32 32">
<path fill="#26a4ff" style="fill: var(--color2, #26a4ff)" d="M22.667 28.333h-13.333c-4.867 0-7.667-2.8-7.667-7.667v-9.333c0-4.867 2.8-7.667 7.667-7.667h13.333c4.867 0 7.667 2.8 7.667 7.667v9.333c0 4.867-2.8 7.667-7.667 7.667zM9.333 5.667c-3.813 0-5.667 1.853-5.667 5.667v9.333c0 3.813 1.853 5.667 5.667 5.667h13.333c3.813 0 5.667-1.853 5.667-5.667v-9.333c0-3.813-1.853-5.667-5.667-5.667h-13.333z"></path>
<path fill="#26a4ff" style="fill: var(--color2, #26a4ff)" d="M16 17.16c-1.12 0-2.253-0.347-3.12-1.053l-4.173-3.333c-0.427-0.347-0.507-0.973-0.16-1.4s0.973-0.507 1.4-0.16l4.173 3.333c1.013 0.813 2.733 0.813 3.747 0l4.173-3.333c0.427-0.347 1.067-0.28 1.4 0.16 0.347 0.427 0.28 1.067-0.16 1.4l-4.173 3.333c-0.853 0.707-1.987 1.053-3.107 1.053z"></path>
</symbol>
<symbol id="icon-sp-spain" viewBox="0 0 32 32">
<path fill="#ffb400" style="fill: var(--color14, #ffb400)" d="M0 4.093v23.814h31.752v-23.814h-31.752z"></path>
<path fill="#c51918" style="fill: var(--color10, #c51918)" d="M0 4.093v5.954h31.752v-5.954h-31.752z"></path>
<path fill="#c51918" style="fill: var(--color10, #c51918)" d="M0 21.953v5.953h31.752v-5.953h-31.752z"></path>
<path fill="#f1f9ff" style="fill: var(--color15, #f1f9ff)" d="M4.969 14.286h1.111v5.779h-1.111v-5.779z"></path>
<path fill="#c88a02" style="fill: var(--color16, #c88a02)" d="M6.525 13.285h-2v0.556h0.333v0.444h1.334v-0.444h0.333v-0.556z"></path>
<path fill="#c88a02" style="fill: var(--color16, #c88a02)" d="M6.191 20.398h0.333v0.556h-2v-0.556h0.333v-0.445h1.334v0.445z"></path>
<path fill="#ad1619" style="fill: var(--color17, #ad1619)" d="M5.525 13.396c0.242 0 0.266-0.091 0.409-0.227 0.111-0.106 0.369-0.237 0.369-0.384 0-0.338-0.348-0.611-0.778-0.611s-0.778 0.274-0.778 0.611c0 0.164 0.178 0.274 0.312 0.384 0.142 0.116 0.245 0.227 0.466 0.227z"></path>
<path fill="#005bbf" style="fill: var(--color18, #005bbf)" d="M4.524 20.953h2v0.889c0 0-0.25-0.111-0.5-0.111s-0.5 0.111-0.5 0.111c0 0-0.25-0.111-0.5-0.111s-0.5 0.111-0.5 0.111v-0.889z"></path>
<path fill="#fff" style="fill: var(--color12, #fff)" d="M4.507 21.668l-0.044-0.107c0.18-0.080 0.361-0.12 0.542-0.12 0.117 0 0.178 0.016 0.282 0.063 0.091 0.041 0.138 0.053 0.238 0.053s0.147-0.013 0.238-0.053c0.104-0.046 0.165-0.063 0.282-0.063 0.181 0 0.362 0.040 0.542 0.12l-0.044 0.107c-0.167-0.074-0.333-0.111-0.498-0.111-0.1 0-0.147 0.013-0.238 0.053-0.104 0.046-0.165 0.063-0.282 0.063s-0.178-0.016-0.282-0.063c-0.091-0.041-0.139-0.053-0.238-0.053-0.166 0-0.332 0.037-0.498 0.111z"></path>
<path fill="#fff" style="fill: var(--color12, #fff)" d="M4.507 21.334l-0.044-0.107c0.18-0.080 0.361-0.12 0.542-0.12 0.117 0 0.178 0.016 0.282 0.063 0.091 0.041 0.138 0.053 0.238 0.053s0.147-0.013 0.238-0.053c0.104-0.046 0.165-0.063 0.282-0.063 0.181 0 0.362 0.040 0.542 0.12l-0.044 0.107c-0.167-0.074-0.333-0.111-0.498-0.111-0.1 0-0.147 0.013-0.238 0.053-0.104 0.046-0.165 0.063-0.282 0.063s-0.178-0.016-0.282-0.063c-0.091-0.041-0.139-0.053-0.238-0.053-0.166 0-0.332 0.037-0.498 0.111z"></path>
<path fill="#f1f9ff" style="fill: var(--color15, #f1f9ff)" d="M15.86 14.286h1.111v5.779h-1.111v-5.779z"></path>
<path fill="#c88a02" style="fill: var(--color16, #c88a02)" d="M17.416 13.285h-2v0.556h0.333v0.444h1.334v-0.444h0.333v-0.556z"></path>
<path fill="#c88a02" style="fill: var(--color16, #c88a02)" d="M17.082 20.398h0.333v0.556h-2v-0.556h0.333v-0.445h1.334v0.445z"></path>
<path fill="#ad1619" style="fill: var(--color17, #ad1619)" d="M16.416 13.397c0.242 0 0.266-0.091 0.409-0.227 0.111-0.106 0.369-0.237 0.369-0.384 0-0.338-0.348-0.611-0.778-0.611s-0.778 0.274-0.778 0.611c0 0.164 0.178 0.274 0.312 0.384 0.142 0.116 0.245 0.227 0.466 0.227z"></path>
<path fill="#005bbf" style="fill: var(--color18, #005bbf)" d="M15.415 20.953h2v0.889c0 0-0.25-0.111-0.5-0.111s-0.5 0.111-0.5 0.111c0 0-0.25-0.111-0.5-0.111s-0.5 0.111-0.5 0.111v-0.889z"></path>
<path fill="#fff" style="fill: var(--color12, #fff)" d="M15.398 21.668l-0.044-0.107c0.18-0.080 0.361-0.12 0.542-0.12 0.117 0 0.178 0.016 0.282 0.063 0.091 0.041 0.139 0.053 0.238 0.053s0.147-0.013 0.238-0.053c0.104-0.046 0.165-0.063 0.282-0.063 0.181 0 0.362 0.040 0.542 0.12l-0.044 0.107c-0.167-0.074-0.333-0.111-0.498-0.111-0.1 0-0.147 0.013-0.238 0.053-0.104 0.046-0.165 0.063-0.282 0.063s-0.178-0.016-0.282-0.063c-0.091-0.041-0.139-0.053-0.238-0.053-0.166 0-0.332 0.037-0.498 0.111z"></path>
<path fill="#fff" style="fill: var(--color12, #fff)" d="M15.398 21.334l-0.044-0.107c0.18-0.080 0.361-0.12 0.542-0.12 0.117 0 0.178 0.016 0.282 0.063 0.091 0.041 0.139 0.053 0.238 0.053s0.147-0.013 0.238-0.053c0.104-0.046 0.165-0.063 0.282-0.063 0.181 0 0.362 0.040 0.542 0.12l-0.044 0.107c-0.167-0.074-0.333-0.111-0.498-0.111-0.1 0-0.147 0.013-0.238 0.053-0.104 0.046-0.165 0.063-0.282 0.063s-0.178-0.016-0.282-0.063c-0.091-0.041-0.139-0.053-0.238-0.053-0.166 0-0.332 0.037-0.498 0.111z"></path>
<path fill="#ad1619" style="fill: var(--color17, #ad1619)" d="M16.576 18.953c0 0.235 0.112 0.456 0.312 0.699l0.682-0.563 0.065-0.020 0.036-0.284c0.067-0.525-0.157-0.816-0.62-1.027l-0.032-0.014-0-0c-0.063-0.028-0.202-0.089-0.248-0.111-0.098-0.047-0.178-0.093-0.253-0.148-0.074-0.054-0.154-0.105-0.25-0.16 0.573-0.092 0.882-0.16 1.119-0.262 0.568-0.245 0.641-0.813 0.095-1.189-0.744-0.513-2.737-0.559-3.611-0.107l0.408 0.79c0.429-0.222 1.405-0.263 2.088-0.15-0.104 0.018-0.22 0.037-0.351 0.058-0.061 0.010-0.24 0.037-0.334 0.052l-0 0-0.056 0.009c-0.273 0.042-0.459 0.096-0.597 0.19-0.282 0.192-0.323 0.537-0.122 0.792 0.085 0.108 0.196 0.188 0.364 0.285 0.054 0.031 0.112 0.063 0.19 0.105l0.041 0.022c0.048 0.025 0.123 0.065 0.151 0.080 0.16 0.086 0.265 0.148 0.344 0.205 0.123 0.089 0.249 0.162 0.392 0.231 0.077 0.037 0.298 0.133 0.297 0.133l0.013 0.006c-0.077 0.104-0.121 0.232-0.121 0.38zM4.949 19.652c0.2-0.243 0.312-0.464 0.312-0.699 0-0.148-0.044-0.276-0.121-0.38l0.013-0.006c-0.001 0.001 0.22-0.096 0.297-0.133 0.143-0.069 0.269-0.141 0.392-0.231 0.078-0.057 0.184-0.119 0.344-0.205 0.028-0.015 0.103-0.055 0.151-0.080l0.041-0.022c0.078-0.042 0.136-0.073 0.19-0.105 0.168-0.097 0.279-0.178 0.364-0.285 0.201-0.255 0.159-0.6-0.122-0.792-0.138-0.094-0.324-0.148-0.597-0.19l-0.057-0.009c-0.093-0.014-0.272-0.042-0.334-0.052-0.131-0.020-0.247-0.040-0.351-0.058 0.683-0.114 1.659-0.072 2.088 0.15l0.408-0.79c-0.875-0.452-2.867-0.405-3.611 0.107-0.546 0.376-0.473 0.944 0.095 1.189 0.237 0.102 0.547 0.17 1.119 0.262-0.096 0.056-0.175 0.107-0.25 0.16-0.075 0.055-0.156 0.101-0.253 0.148-0.047 0.022-0.185 0.083-0.248 0.111l-0.032 0.014c-0.463 0.21-0.687 0.501-0.62 1.027l0.036 0.284 0.065 0.020 0.682 0.563zM4.378 18.917l-0.001 0.004 0.001-0.003 0-0.001z"></path>
<path fill="#f1f9ff" style="fill: var(--color15, #f1f9ff)" d="M5.877 16.397l0.328 0.068v0.489c-0.349 0.279-1.236 0.749-1.236 0.749v-1.305h0.908z"></path>
<path fill="#f1f9ff" style="fill: var(--color15, #f1f9ff)" d="M16.188 16.397l-0.328 0.068v0.489c0.349 0.279 1.236 0.749 1.236 0.749v-1.305h-0.908z"></path>
<path fill="#ad1619" style="fill: var(--color17, #ad1619)" d="M14.661 11.243v-0.163c-0.572-0.41-1.17-0.615-1.796-0.615-0.601-0.266-1.21-0.369-1.825-0.309v0.053c-0.033 0.386-0.213 2.629 0 2.98v-2.98zM11.040 13.198v0.003c0 0 1.463-0.040 1.566-0.074 0.041-0.014 0.083-0.026 0.126-0.039 0.287-0.084 0.614-0.179 0.808-0.719l1.121-1.126z"></path>
<path fill="#c88a02" style="fill: var(--color16, #c88a02)" d="M8.249 12.18l0.006 0.001 0.226 0.212c0.033 0.060 0.062 0.116 0.087 0.167 0.028 0.111 0.069 0.235 0.128 0.309 0.005 0.021 0.008 0.039 0.008 0.053 0 0.115 0.298 0.183 0.88 0.252 0.456 0.055 0.993 0.091 1.433 0.097v0.001l0.056-0 0.056 0v-0.001c0.44-0.005 0.978-0.042 1.433-0.097 0.582-0.070 0.88-0.138 0.88-0.252 0-0.075 0.075-0.256 0.224-0.53l1.019-0.959-0.076-0.081-0.819 0.771-0.035-0.162c-0.121 0.026-0.21 0.036-0.261 0.030v-0.151l-0.164 0.089c-0.081 0.044-0.196 0.055-0.348 0.031-0.112-0.018-0.187-0.148-0.212-0.425l-0.050-0.558-0.167 0.535c-0.076 0.242-0.191 0.349-0.355 0.349-0.16 0-0.225-0.059-0.232-0.207l-0.020-0.42-0.19 0.375c-0.068 0.135-0.163 0.197-0.297 0.197-0.192 0-0.32-0.16-0.32-0.411h-0.226c0 0.251-0.128 0.411-0.32 0.411-0.134 0-0.229-0.061-0.297-0.197l-0.19-0.375-0.020 0.42c-0.007 0.148-0.072 0.207-0.232 0.207-0.164 0-0.279-0.107-0.355-0.349l-0.167-0.535-0.050 0.558c-0.025 0.277-0.1 0.406-0.212 0.425-0.152 0.025-0.268 0.013-0.348-0.031l-0.164-0.089v0.151c-0.052 0.005-0.14-0.004-0.261-0.030l-0.019 0.087-0.74-0.696-0.076 0.081 0.789 0.742-0.001 0.004zM13.712 12.197l-0.129 0.121-0.011 0.014c-0.043 0.079-0.081 0.152-0.112 0.216 0.030-0.124 0.042-0.229 0.042-0.229s-0.498-0.142-1.21-0.243c0.129-0.022 0.237-0.089 0.323-0.198 0.065 0.172 0.174 0.276 0.33 0.301 0.146 0.024 0.274 0.021 0.383-0.011 0.070 0.057 0.201 0.060 0.383 0.028zM11.957 12.035c-0.106-0.012-0.215-0.022-0.327-0.030 0.067-0.021 0.127-0.055 0.18-0.102 0.036 0.057 0.085 0.102 0.147 0.133zM11.238 11.982c-0.060-0.002-0.12-0.003-0.18-0.004v-0l-0.044 0-0.044-0v0c-0.051 0.001-0.102 0.002-0.153 0.003 0.086-0.040 0.157-0.104 0.21-0.185 0.054 0.082 0.126 0.146 0.212 0.186zM8.555 12.311l-0.104-0.097c0.124 0.012 0.216 0.001 0.271-0.044 0.109 0.032 0.237 0.035 0.383 0.011 0.156-0.025 0.265-0.129 0.33-0.301 0.083 0.106 0.187 0.172 0.311 0.196-0.613 0.086-1.070 0.203-1.192 0.236zM10.416 12.003c-0.108 0.008-0.213 0.018-0.316 0.029 0.059-0.031 0.106-0.074 0.14-0.129 0.052 0.046 0.11 0.079 0.176 0.101zM13.15 12.925c0.078 0.036 0.14 0 0.19-0.070-0.004 0.019-0.007 0.037-0.008 0.052-0.007 0.004-0.017 0.009-0.030 0.015-0.037 0.015-0.092 0.032-0.165 0.048-0.143 0.033-0.346 0.065-0.588 0.094-0.471 0.057-1.031 0.094-1.476 0.097-0.445-0.003-1.005-0.040-1.476-0.097-0.241-0.029-0.445-0.061-0.588-0.094-0.061-0.014-0.11-0.028-0.146-0.041 0.004-0.002 0.008-0.003 0.012-0.005 0.243-0.114 1.849-0.22 2.137-0.239 0.289 0.018 1.895 0.125 2.137 0.239zM13.456 12.905l-0.001 0.001-0-0 0.001-0.001z"></path>
<path fill="#005bbf" style="fill: var(--color18, #005bbf)" d="M11.026 9.399c0.184 0 0.333-0.149 0.333-0.333s-0.149-0.333-0.333-0.333c-0.184 0-0.333 0.149-0.333 0.333s0.149 0.333 0.333 0.333z"></path>
<path fill="#c88a02" style="fill: var(--color16, #c88a02)" d="M10.809 11.036c0.007 0.037 0.018 0.071 0.032 0.101-0.043-0.016-0.094-0.026-0.149-0.026-0.153 0-0.278 0.075-0.278 0.167s0.124 0.167 0.278 0.167c0.15 0 0.272-0.071 0.278-0.16 0.006 0.089 0.128 0.16 0.278 0.16 0.153 0 0.278-0.075 0.278-0.167s-0.124-0.167-0.278-0.167c-0.039 0-0.075 0.005-0.109 0.013 0.008-0.046 0.008-0.098-0.003-0.152-0.029-0.151-0.126-0.258-0.217-0.241s-0.14 0.154-0.111 0.305zM9.174 11.248c-0.014-0.030-0.025-0.064-0.032-0.101-0.029-0.151 0.020-0.287 0.111-0.305s0.187 0.090 0.217 0.241c0.011 0.054 0.011 0.106 0.003 0.152 0.033-0.009 0.070-0.013 0.109-0.013 0.153 0 0.278 0.075 0.278 0.167s-0.124 0.167-0.278 0.167c-0.151 0-0.274-0.072-0.278-0.162-0.004 0.090-0.127 0.162-0.278 0.162-0.153 0-0.278-0.075-0.278-0.167s0.124-0.167 0.278-0.167c0.055 0 0.106 0.009 0.149 0.026zM9.303 11.384v0zM12.655 11.35c-0.013 0.091-0.146 0.148-0.298 0.126s-0.265-0.113-0.252-0.204 0.146-0.148 0.298-0.126c0.054 0.008 0.104 0.024 0.144 0.046-0.010-0.032-0.016-0.067-0.018-0.104-0.008-0.153 0.060-0.281 0.152-0.286s0.173 0.116 0.181 0.269c0.003 0.055-0.004 0.107-0.018 0.151 0.034-0.004 0.072-0.003 0.11 0.002 0.152 0.021 0.265 0.113 0.252 0.204s-0.146 0.148-0.298 0.126c-0.152-0.021-0.265-0.113-0.252-0.204l0.001-0.005-0-0-0.001 0.005zM13.713 11.79c0.135 0.072 0.28 0.065 0.324-0.017l0.002-0.004c0.013 0.014 0.029 0.024 0.047 0.030 0.088 0.027 0.196-0.070 0.241-0.217s0.010-0.288-0.078-0.314-0.196 0.070-0.241 0.217c-0.011 0.036-0.017 0.071-0.019 0.104-0.030-0.035-0.071-0.067-0.119-0.093-0.136-0.072-0.28-0.065-0.324 0.017s0.032 0.206 0.167 0.278zM8.26 11.824c-0.136 0.072-0.28 0.065-0.324-0.017-0.001-0.001-0.002-0.003-0.002-0.004-0.013 0.014-0.029 0.024-0.047 0.030-0.088 0.027-0.196-0.070-0.241-0.217s-0.010-0.287 0.078-0.314c0.088-0.027 0.196 0.070 0.241 0.217 0.011 0.036 0.017 0.071 0.019 0.104 0.030-0.035 0.071-0.067 0.119-0.093 0.136-0.072 0.28-0.065 0.324 0.017s-0.032 0.206-0.167 0.278z"></path>
<path fill="#c88a02" style="fill: var(--color16, #c88a02)" d="M10.901 8.138h0.232v0.146h0.152v0.232h-0.152v0.463h0.152v0.232h-0.536v-0.232h0.153v-0.463h-0.153v-0.232h0.153v-0.146z"></path>
<path fill="#c88a02" style="fill: var(--color16, #c88a02)" d="M10.859 9.396h0.445v1.445h-0.445v-1.445z"></path>
<path fill="#fff" style="fill: var(--color12, #fff)" d="M9.069 9.638l-0.002 0.111c-0.985-0.017-1.551 0.127-1.694 0.413-0.148 0.296-0.121 0.657 0.087 1.084l-0.1 0.049c-0.222-0.457-0.252-0.852-0.087-1.183 0.17-0.34 0.768-0.492 1.795-0.475z"></path>
<path fill="#fff" style="fill: var(--color12, #fff)" d="M9.26 10.623l-0.057 0.095c-0.215-0.128-0.322-0.347-0.322-0.648 0-0.433 0.223-0.687 0.717-0.861 0.315-0.111 0.745-0.065 1.292 0.133l-0.038 0.104c-0.525-0.19-0.931-0.233-1.217-0.132-0.453 0.159-0.642 0.375-0.642 0.756 0 0.264 0.089 0.446 0.268 0.553z"></path>
<path fill="#c88a02" style="fill: var(--color16, #c88a02)" d="M7.601 11.076l-0.21 0.074c-0.218-0.62-0.155-1.040 0.216-1.222 0.328-0.16 0.805-0.225 1.435-0.2l-0.009 0.222c-0.596-0.024-1.040 0.036-1.328 0.177-0.244 0.119-0.289 0.422-0.104 0.948z"></path>
<path fill="#c88a02" style="fill: var(--color16, #c88a02)" d="M10.051 9.49c-0.508 0-0.717 0.124-0.836 0.489-0.076 0.233-0.002 0.432 0.237 0.617l-0.136 0.176c-0.309-0.24-0.418-0.534-0.312-0.862 0.152-0.466 0.45-0.643 1.047-0.643 0.392 0 0.696 0.103 0.909 0.312l0.033 0.033v1.072h-0.222v-0.977c-0.166-0.144-0.404-0.218-0.72-0.218z"></path>
<path fill="#fff" style="fill: var(--color12, #fff)" d="M12.948 9.749l0.002 0.111c0.985-0.017 1.551 0.127 1.694 0.413 0.148 0.296 0.121 0.657-0.087 1.084l0.1 0.049c0.222-0.457 0.252-0.852 0.087-1.183-0.17-0.34-0.768-0.492-1.796-0.475z"></path>
<path fill="#fff" style="fill: var(--color12, #fff)" d="M12.6 10.646l0.057 0.095c0.215-0.128 0.322-0.347 0.322-0.648 0-0.433-0.223-0.687-0.717-0.861-0.315-0.111-0.745-0.065-1.292 0.133l0.038 0.104c0.525-0.19 0.931-0.233 1.217-0.132 0.453 0.159 0.642 0.375 0.642 0.756 0 0.264-0.089 0.446-0.268 0.553z"></path>
<path fill="#c88a02" style="fill: var(--color16, #c88a02)" d="M14.486 11.187l0.21 0.074c0.218-0.62 0.155-1.040-0.216-1.222-0.328-0.16-0.805-0.225-1.435-0.199l0.009 0.222c0.596-0.024 1.040 0.036 1.328 0.177 0.244 0.119 0.289 0.422 0.104 0.948z"></path>
<path fill="#c88a02" style="fill: var(--color16, #c88a02)" d="M12.023 9.507c0.508 0 0.717 0.124 0.836 0.489 0.076 0.233 0.002 0.432-0.237 0.617l0.136 0.176c0.309-0.24 0.418-0.534 0.312-0.862-0.152-0.466-0.45-0.643-1.047-0.643-0.391 0-0.696 0.103-0.909 0.312l-0.033 0.033v1.072h0.222v-0.977c0.166-0.144 0.404-0.218 0.72-0.218z"></path>
<path fill="#e1e5e8" style="fill: var(--color19, #e1e5e8)" opacity="0.3" d="M7.414 13.285h7.224v6.49c0 0-0.537 2.178-3.612 2.178s-3.612-2.236-3.612-2.236v-6.433z"></path>
<path fill="#ffc034" style="fill: var(--color20, #ffc034)" d="M7.414 17.286h3.667v4.334h-3.667v-4.334z"></path>
<path fill="#ad1619" style="fill: var(--color17, #ad1619)" d="M7.859 17.508h0.445v4.112h-0.445v-4.112z"></path>
<path fill="#ad1619" style="fill: var(--color17, #ad1619)" d="M9.414 17.508h0.445v4.112h-0.445v-4.112z"></path>
<path fill="#ad1619" style="fill: var(--color17, #ad1619)" d="M8.636 17.508h0.445v4.112h-0.445v-4.112z"></path>
<path fill="#ad1619" style="fill: var(--color17, #ad1619)" d="M10.192 17.508h0.445v4.112h-0.445v-4.112z"></path>
<path fill="#ad1619" style="fill: var(--color17, #ad1619)" d="M7.414 13.174h3.667v4.223h-3.667v-4.223z"></path>
<path fill="#ad1619" style="fill: var(--color17, #ad1619)" d="M10.97 17.175h3.667v4.223h-3.667v-4.223z"></path>
<path fill="#f1f9ff" style="fill: var(--color15, #f1f9ff)" d="M10.97 13.285h3.89v4.112h-3.89v-4.112z"></path>
<path fill="#c88a02" style="fill: var(--color16, #c88a02)" d="M8.97 13.619h0.333v0.922h0.222v-0.461h0.333v0.461h0.333v0.576h-0.333v1.037h0.333v0.576h-2v-0.576h0.334v-1.037h-0.334v-0.576h0.222v-0.461h0.333v0.461h0.223v-0.922z"></path>
<path fill="#c37c9c" style="fill: var(--color21, #c37c9c)" d="M12.729 14.34c-0.004 0.001-0.006 0.002-0.002 0.004 0.041 0.015 0.101 0.065 0.176 0.171-0.029 0.021-0.078 0.046-0.14 0.069-0.060 0.023-0.127 0.042-0.194 0.057-0.040 0.009-0.070 0.015-0.085 0.017l0.005 0.031c-0.074-0.039-0.152-0.109-0.238-0.213s-0.168-0.181-0.249-0.237c-0.016-0.011-0.037-0.024-0.057-0.036l0.011-0.027-0.31-0.123c-0.083 0.21-0.091 0.297 0.046 0.389 0.004 0.003 0.019 0.011 0.036 0.021v0c0.029 0.017 0.067 0.038 0.085 0.050 0.055 0.038 0.114 0.092 0.181 0.174 0.175 0.213 0.36 0.339 0.551 0.369l0.023 0.151c0.021-0.003 0.044-0.007 0.068-0.012 0.044 0.076 0.085 0.147 0.124 0.213-0.009 0-0.018 0.001-0.027 0.002-0.185 0.019-0.281 0.169-0.223 0.36 0.021 0.068 0.047 0.135 0.084 0.219l0.038 0.086c-0.155-0.044-0.237-0.060-0.301-0.059-0.169 0.005-0.23 0.127-0.208 0.269l0.329-0.052c0.005 0.031-0.036 0.114-0.112 0.116 0.024-0.001 0.111 0.020 0.282 0.070 0.23 0.067 0.414 0.013 0.401-0.215-0.003-0.053-0.019-0.107-0.049-0.179-0.015-0.036-0.078-0.176-0.075-0.171-0.017-0.039-0.031-0.073-0.043-0.104 0.036 0.007 0.081 0.018 0.134 0.034 0.004 0.001 0.008 0.002 0.012 0.004 0.013 0.019 0.026 0.037 0.039 0.054 0.050 0.069 0.053 0.088 0.042 0.12-0.005 0.013-0.009 0.024-0.012 0.035-0.007 0.024-0.009 0.047-0.004 0.073 0.013 0.073 0.063 0.114 0.162 0.159l0.093-0.202c-0.009-0.004-0.017-0.008-0.023-0.011 0.013-0.046 0.016-0.091 0.005-0.139 0.031 0.007 0.057 0.010 0.083 0.010v-0.333c-0.011 0-0.032-0.006-0.223-0.066-0.030-0.009-0.056-0.017-0.080-0.024-0.012-0.003-0.023-0.007-0.034-0.010-0.057-0.091-0.12-0.196-0.189-0.316 0.033-0.010 0.066-0.022 0.1-0.034 0.174-0.066 0.313-0.149 0.407-0.269 0.146-0.186 0.146-0.421-0.004-0.634-0.262-0.373-0.57-0.484-0.834-0.379-0.039 0.016-0.070 0.034-0.094 0.051l0.33 0.447c-0.013 0.009-0.022 0.015-0.030 0.018-0.002 0.001-0.004 0.001-0.005 0.002z"></path>
<path fill="#c88a02" style="fill: var(--color16, #c88a02)" d="M12.878 13.812l0.228-0.244 0.478 0.446-0.228 0.244-0.478-0.446z"></path>
<path fill="#ffc034" style="fill: var(--color20, #ffc034)" d="M14.248 20.108v-2.433h-2.778v2.413l0.004 0.019c0.141 0.599 0.62 0.902 1.385 0.902s1.243-0.295 1.384-0.882l0.005-0.019zM12.859 20.675c-0.614 0-0.949-0.207-1.056-0.627v-2.040h2.112v2.059c-0.106 0.407-0.442 0.608-1.056 0.608z"></path>
<path fill="#ffc034" style="fill: var(--color20, #ffc034)" d="M12.974 17.878h-0.232v1.103l-0.913-0.993-0.164 0.15 0.825 0.898h-0.748v0.333h0.766l-0.844 0.918 0.164 0.15 0.913-0.992v1.289h0.232v-1.173l0.806 0.877 0.164-0.15-0.844-0.918h0.941v-0.333h-0.923l0.825-0.898-0.164-0.15-0.806 0.877v-0.987z"></path>
<path fill="#f1f9ff" style="fill: var(--color15, #f1f9ff)" d="M13.378 21.4c0 0-2.354 0.185-2.354-1.333 0 0-0.022 1.333-2.48 1.333v1.198h4.834v-1.198z"></path>
<path fill="#005bbf" style="fill: var(--color18, #005bbf); stroke: var(--color17, #ad1619)" stroke="#ad1619" stroke-linejoin="miter" stroke-linecap="butt" stroke-miterlimit="4" stroke-width="1.1576" d="M11.025 18.175c0.46 0 0.834-0.398 0.834-0.889s-0.373-0.889-0.834-0.889c-0.46 0-0.834 0.398-0.834 0.889s0.373 0.889 0.834 0.889z"></path>
</symbol>
<symbol id="icon-star1" viewBox="0 0 32 32">
<path fill="#4640de" style="fill: var(--color1, #4640de); stroke: var(--color1, #4640de)" stroke="#4640de" stroke-linejoin="round" stroke-linecap="round" stroke-miterlimit="4" stroke-width="1.4118" d="M16.471 2.588l3.999 8.101 8.942 1.307-6.471 6.302 1.527 8.904-7.998-4.206-7.998 4.206 1.527-8.904-6.471-6.302 8.942-1.307 3.999-8.101z"></path>
</symbol>
<symbol id="icon-tv" viewBox="0 0 32 32">
<path fill="none" stroke="#4640de" style="stroke: var(--color1, #4640de)" stroke-linejoin="round" stroke-linecap="round" stroke-miterlimit="4" stroke-width="2.6667" d="M13 22.667l-1 4-1.333 1.333h10.667l-1.333-1.333-1-4h-6zM4 17.333v0zM6.667 22.667h18.667c0.707 0 1.386-0.281 1.886-0.781s0.781-1.178 0.781-1.886v-13.333c0-0.707-0.281-1.386-0.781-1.886s-1.178-0.781-1.886-0.781h-18.667c-0.707 0-1.386 0.281-1.886 0.781s-0.781 1.178-0.781 1.886v13.333c0 0.707 0.281 1.386 0.781 1.886s1.178 0.781 1.886 0.781z"></path>
</symbol>
<symbol id="icon-twitter" viewBox="0 0 32 32">
<path fill="#4640de" style="fill: var(--color1, #4640de)" d="M29.333 7.733c-1.002 0.435-2.062 0.722-3.147 0.853 1.144-0.684 2.002-1.759 2.413-3.027-1.075 0.64-2.252 1.091-3.48 1.333-0.821-0.89-1.913-1.482-3.107-1.684s-2.42-0.002-3.488 0.568c-1.068 0.57-1.916 1.479-2.411 2.584s-0.611 2.342-0.327 3.519c-2.174-0.11-4.301-0.676-6.242-1.662s-3.653-2.368-5.025-4.058c-0.481 0.84-0.734 1.792-0.733 2.76-0.002 0.899 0.219 1.785 0.642 2.578s1.036 1.47 1.784 1.969c-0.869-0.024-1.72-0.257-2.48-0.68v0.067c0.007 1.26 0.448 2.479 1.25 3.451s1.915 1.637 3.15 1.883c-0.476 0.145-0.97 0.221-1.467 0.227-0.344-0.004-0.687-0.035-1.027-0.093 0.352 1.084 1.033 2.031 1.948 2.709s2.019 1.055 3.159 1.077c-1.924 1.514-4.299 2.34-6.747 2.347-0.446 0.001-0.891-0.025-1.333-0.080 2.499 1.614 5.412 2.47 8.387 2.467 2.053 0.021 4.089-0.367 5.991-1.141s3.629-1.92 5.083-3.37c1.454-1.45 2.604-3.175 3.383-5.074s1.173-3.935 1.157-5.988c0-0.227 0-0.467 0-0.707 1.046-0.78 1.949-1.737 2.667-2.827z"></path>
</symbol>
<symbol id="icon-wc" viewBox="0 0 32 32">
<path fill="#4640de" style="fill: var(--color1, #4640de)" d="M7.333 29.333v-10h-2v-7.333c0-0.733 0.261-1.361 0.783-1.883s1.15-0.783 1.883-0.783h4c0.733 0 1.361 0.261 1.883 0.783s0.783 1.15 0.783 1.883v7.333h-2v10h-5.333zM10 8c-0.733 0-1.361-0.261-1.883-0.783s-0.783-1.15-0.783-1.883c0-0.733 0.261-1.361 0.783-1.883s1.15-0.783 1.883-0.783c0.733 0 1.361 0.261 1.883 0.783s0.783 1.15 0.783 1.883c0 0.733-0.261 1.361-0.783 1.883s-1.15 0.783-1.883 0.783zM20 29.333v-8h-4l3.4-10.2c0.178-0.578 0.506-1.022 0.983-1.333s1.017-0.467 1.617-0.467c0.6 0 1.139 0.156 1.617 0.467s0.806 0.756 0.983 1.333l3.4 10.2h-4v8h-4zM22 8c-0.733 0-1.361-0.261-1.883-0.783s-0.783-1.15-0.783-1.883c0-0.733 0.261-1.361 0.783-1.883s1.15-0.783 1.883-0.783c0.733 0 1.361 0.261 1.883 0.783s0.783 1.15 0.783 1.883c0 0.733-0.261 1.361-0.783 1.883s-1.15 0.783-1.883 0.783z"></path>
</symbol>
<symbol id="icon-web" viewBox="0 0 32 32">
<path fill="none" stroke="#4640de" style="stroke: var(--color1, #4640de)" stroke-linejoin="round" stroke-linecap="round" stroke-miterlimit="4" stroke-width="2.6667" d="M16 28c6.627 0 12-5.373 12-12s-5.373-12-12-12c-6.627 0-12 5.373-12 12s5.373 12 12 12z"></path>
<path fill="none" stroke="#4640de" style="stroke: var(--color1, #4640de)" stroke-linejoin="round" stroke-linecap="round" stroke-miterlimit="4" stroke-width="2.6667" d="M4.8 12h22.4"></path>
<path fill="none" stroke="#4640de" style="stroke: var(--color1, #4640de)" stroke-linejoin="round" stroke-linecap="round" stroke-miterlimit="4" stroke-width="2.6667" d="M4.8 20h22.4"></path>
<path fill="none" stroke="#4640de" style="stroke: var(--color1, #4640de)" stroke-linejoin="round" stroke-linecap="round" stroke-miterlimit="4" stroke-width="2.6667" d="M15.334 4c-2.246 3.599-3.437 7.757-3.437 12s1.191 8.401 3.437 12"></path>
<path fill="none" stroke="#4640de" style="stroke: var(--color1, #4640de)" stroke-linejoin="round" stroke-linecap="round" stroke-miterlimit="4" stroke-width="2.6667" d="M16.667 4c2.246 3.599 3.437 7.757 3.437 12s-1.191 8.401-3.437 12"></path>
</symbol>
<symbol id="icon-weekend" viewBox="0 0 32 32">
<path fill="#4640de" style="fill: var(--color1, #4640de)" d="M5.333 9.333c0-1.111 0.389-2.056 1.167-2.833s1.722-1.167 2.833-1.167h13.333c1.111 0 2.056 0.389 2.833 1.167s1.167 1.722 1.167 2.833v2.667c1.111 0 2.056 0.389 2.833 1.167s1.167 1.722 1.167 2.833v6.667c0 1.111-0.389 2.056-1.167 2.833s-1.722 1.167-2.833 1.167h-21.333c-1.111 0-2.056-0.389-2.833-1.167s-1.167-1.722-1.167-2.833v-6.667c0-1.111 0.389-2.056 1.167-2.833s1.722-1.167 2.833-1.167v-2.667zM8 9.333v3.733c0.4 0.378 0.722 0.811 0.967 1.3s0.367 1.033 0.367 1.633v2.667h13.333v-2.667c0-0.6 0.122-1.144 0.367-1.633s0.567-0.922 0.967-1.3v-3.733c0-0.378-0.128-0.694-0.383-0.95s-0.572-0.383-0.95-0.383h-13.333c-0.378 0-0.694 0.128-0.95 0.383s-0.383 0.572-0.383 0.95zM25.333 21.333h-18.667v-5.333c0-0.178-0.033-0.35-0.1-0.517s-0.161-0.311-0.283-0.433c-0.122-0.122-0.267-0.217-0.433-0.283s-0.339-0.1-0.517-0.1c-0.378 0-0.694 0.128-0.95 0.383s-0.383 0.572-0.383 0.95v6.667c0 0.378 0.128 0.694 0.383 0.95s0.572 0.383 0.95 0.383h21.333c0.378 0 0.694-0.128 0.95-0.383s0.383-0.572 0.383-0.95v-6.667c0-0.378-0.128-0.694-0.383-0.95s-0.572-0.383-0.95-0.383c-0.178 0-0.35 0.033-0.517 0.1s-0.311 0.161-0.433 0.283c-0.122 0.122-0.217 0.267-0.283 0.433s-0.1 0.339-0.1 0.517v5.333z"></path>
</symbol>
<symbol id="icon-wifi" viewBox="0 0 32 32">
<path fill="#4640de" style="fill: var(--color1, #4640de)" d="M16 28c-0.933 0-1.722-0.322-2.367-0.967s-0.967-1.433-0.967-2.367c0-0.933 0.322-1.722 0.967-2.367s1.433-0.967 2.367-0.967c0.933 0 1.722 0.322 2.367 0.967s0.967 1.433 0.967 2.367c0 0.933-0.322 1.722-0.967 2.367s-1.433 0.967-2.367 0.967zM8.467 20.467l-2.8-2.867c1.311-1.311 2.85-2.35 4.617-3.117s3.672-1.15 5.717-1.15c2.044 0 3.95 0.389 5.717 1.167s3.306 1.833 4.617 3.167l-2.8 2.8c-0.978-0.978-2.111-1.744-3.4-2.3s-2.667-0.833-4.133-0.833c-1.467 0-2.844 0.278-4.133 0.833s-2.422 1.322-3.4 2.3zM2.8 14.8l-2.8-2.8c2.044-2.089 4.433-3.722 7.167-4.9s5.678-1.767 8.833-1.767c3.156 0 6.1 0.589 8.833 1.767s5.122 2.811 7.167 4.9l-2.8 2.8c-1.711-1.711-3.694-3.050-5.95-4.017s-4.672-1.45-7.25-1.45c-2.578 0-4.994 0.483-7.25 1.45s-4.239 2.306-5.95 4.017z"></path>
</symbol>
</defs>
</svg>
